<?xml version="1.0" encoding="UTF-8" standalone="no"?>
<svg
   width="37.797749"
   height="37.797798"
   viewBox="0 0 37.797749 37.797798"
   fill="none"
   version="1.1"
   id="svg1"
   xmlns="http://www.w3.org/2000/svg"
   xmlns:svg="http://www.w3.org/2000/svg">
  <defs
     id="defs1" />
  <path
     fill-rule="evenodd"
     clip-rule="evenodd"
     d="M 23.56404,0.58017705 C 22.071877,0.20132641 20.508843,0 18.898846,0 16.963127,0 15.095349,0.29102445 13.3369,0.83170355 c 0.03741,0.00849 0.07494,0.016985 0.112635,0.025477 0.630467,0.1419806 1.415149,0.30735315 2.362362,0.41748725 1.88715,0.2194439 4.449274,0.2228174 7.651409,-0.66666105 0.03355,-0.00928 0.06718,-0.018605 0.10073,-0.027821 z M 9.5625067,2.4634239 C 6.8298764,4.0190678 4.5230294,6.2365614 2.8600963,8.8977528 l 0.6867487,0.4754397 17.005656,-3.2563947 9.242792,-2.2182861 0.247952,-0.059494 0.244172,0.073255 0.207228,0.062183 C 29.373279,3.1019325 28.150993,2.3530256 26.848196,1.7481752 25.911189,1.93328 24.945266,2.157818 23.969138,2.4289509 20.501,3.3923133 17.689979,3.3956773 15.593618,3.1519198 14.548887,3.0304468 13.689271,2.8484118 13.034329,2.7008875 12.937469,2.6790746 12.847231,2.6585198 12.762657,2.6392546 l -6.49e-4,-1.51e-4 c -0.208266,-0.047432 -0.382324,-0.087094 -0.537485,-0.1187051 -0.22877,-0.046598 -0.331675,-0.056962 -0.36645,-0.056962 h -0.0066 -0.0069 -0.0072 -0.0074 -0.0077 -0.0079 -0.0082 -0.0083 -0.0086 -0.0088 -0.0091 -0.0093 -0.0096 -0.0098 -0.01006 -0.01038 -0.01054 -0.01085 -0.01101 -0.01132 -0.01148 -0.01179 -0.01195 -0.01227 -0.01242 -0.01274 -0.0129 -0.01321 -0.01337 -0.01368 -0.01384 -0.01415 -0.01431 -0.01463 -0.01478 -0.01494 -0.01525 -0.01541 -0.01573 -0.01577 -0.01606 -0.01636 -0.01645 -0.01672 -0.01702 -0.01709 -0.01739 -0.01758 -0.01777 -0.01796 -0.01824 -0.01843 -0.01862 -0.01881 -0.019 -0.01928 -0.01947 -0.01956 -0.01985 -0.02013 -0.02022 -0.02041 -0.0206 -0.02089 -0.02098 -0.02126 -0.02145 -0.02154 -0.02183 -0.02202 -0.02221 -0.0224 -0.02249 -0.02277 -0.02296 -0.02315 -0.02334 -0.02343 -0.02372 -0.02381 -0.02409 -0.02419 -0.02438 -0.02466 -0.02475 -0.02494 -0.02504 -0.02532 -0.02541 -0.0257 -0.02579 -0.02598 -0.02617 -0.02626 -0.02655 -0.02664 -0.02683 -0.02692 -0.02722 -0.0273 -0.02751 -0.02758 -0.02779 -0.02798 -0.02817 -0.02826 -0.02845 -0.02864 -0.02883 -0.02892 -0.02902 -0.0292 -0.02939 -0.02958 -0.02968 -0.02977 -0.03005 -0.03005 z M 35.927984,27.105084 c 0.362195,-0.750192 0.676203,-1.527976 0.93814,-2.329289 l -2.845796,0.94863 -0.734883,0.24493 -0.384403,-0.672517 -1.210193,-2.117905 h -7.604066 -3.137405 l -5.748006,2.514781 -0.267514,0.11699 -0.286886,-0.05424 L 1.0230484,23.178938 H 0.48665802 c 0.63270858,2.732685 1.85810278,5.238396 3.53347248,7.374256 h 0.012896 0.01494 0.015098 0.015098 0.015098 0.015098 0.015255 0.015255 0.015255 0.015412 0.015412 0.015412 0.015412 0.015569 0.015569 0.015569 0.015569 0.015727 0.015727 0.015774 0.015805 0.015852 0.0159 0.015931 0.015978 0.01601 0.016057 0.016088 0.016136 0.016167 0.016198 0.016261 0.016277 0.016324 0.016356 0.016403 0.016434 0.016482 0.016513 0.016545 0.016592 0.016623 0.016654 0.016686 0.016733 0.016765 0.016796 0.016828 0.016875 0.016906 0.016938 0.016969 0.017001 0.017032 0.017079 0.017111 0.017126 0.017173 0.017205 0.017221 0.017268 0.017299 0.017331 0.017362 0.017394 0.017409 0.017441 0.017488 0.017504 0.017535 0.017567 0.017598 0.01763 0.017645 0.017677 0.017708 0.01774 0.017771 0.017787 0.017818 0.017834 0.017881 0.017897 0.017928 0.017944 0.017976 0.018007 0.018023 0.018054 0.01807 0.018101 0.018117 0.018149 0.01818 0.018196 0.018211 0.018243 0.018259 0.01829 0.018322 0.018337 0.018353 0.018369 0.0184 0.018416 0.018432 0.018447 0.018479 0.018495 0.01851 0.018542 0.018558 0.018573 0.018605 0.01862 0.01862 0.018652 0.018668 0.018683 0.018699 0.018715 0.018731 0.018762 0.018762 0.018778 0.018793 0.018809 0.018825 0.018856 0.018856 0.018872 0.018904 0.018904 0.018919 0.018935 0.018951 0.018951 0.018966 0.018982 0.018998 0.019014 0.019029 0.019029 0.019045 0.019045 0.019061 0.019077 0.019092 0.019108 0.019108 0.019124 0.019139 0.019139 0.019139 0.019155 0.019171 0.019171 0.019186 0.019187 0.019187 0.019218 0.019218 0.019218 0.019234 0.019234 0.019234 0.019234 0.019265 0.019249 0.019265 0.019265 0.019265 0.019281 0.019281 0.019281 0.019281 0.019297 0.019297 0.019297 0.019312 0.019297 0.019297 0.019312 0.019312 0.019312 0.019312 0.019312 0.019312 0.019312 0.019328 0.019312 0.019312 0.019312 0.019312 0.019312 0.019312 0.019312 0.019312 0.019312 0.019312 0.019312 0.019312 0.019297 0.019297 0.0193 0.01928 0.01928 0.01928 0.01928 0.01928 0.01926 0.01927 0.01927 0.01925 0.01925 0.01925 0.01923 0.01923 0.01923 0.01922 0.01922 0.0192 0.0192 0.01919 0.01919 0.01917 0.01915 0.01915 0.01914 0.01914 0.01912 0.01912 0.01911 0.01909 0.01909 0.01908 0.01906 0.01905 0.01905 0.01903 0.01901 0.01901 0.019 0.01897 0.01897 0.01895 0.01895 0.01892 0.01892 0.0189 0.01889 0.01887 0.01886 0.01882 0.01882 0.01881 0.01879 0.01878 0.01876 0.01875 0.01873 0.01872 0.01868 0.01868 0.01865 0.01864 0.01862 0.01861 0.01859 0.01857 0.01854 0.01853 0.01851 0.01849 0.01846 0.01845 0.01843 0.0184 0.01838 0.01835 0.01834 0.01832 0.01831 0.01828 0.01826 0.01823 0.01821 0.0182 0.01816 0.01813 0.01812 0.01809 0.01807 0.01804 0.01802 0.01799 0.01796 0.01794 0.01794 0.01786 0.01787 0.01787 0.01777 0.01777 0.01777 0.01777 0.01768 0.01768 0.01766 0.01758 0.01758 0.01758 0.01749 0.01758 0.01739 0.01749 0.01739 0.01739 0.01739 0.0173 0.0173 0.01719 0.01721 0.01721 0.0172 0.01711 0.01709 0.01702 0.01711 0.01691 0.01702 0.01692 0.01691 0.01683 0.01681 0.01683 0.01672 0.01673 0.01664 0.01664 0.01664 0.01654 0.01654 0.01655 0.01645 0.01645 0.01634 0.01636 0.01636 0.01625 0.01625 0.01617 0.01615 0.01617 0.01606 0.01607 0.01596 0.01596 0.01587 0.01587 0.01587 0.01577 0.01573 0.01577 0.01573 0.01557 0.01557 0.01557 0.01557 0.01557 0.01541 0.01541 0.01525 0.01525 0.01525 0.0151 0.01525 0.0151 0.0151 0.0151 0.01494 0.01494 0.01478 0.01478 0.01478 0.01478 0.01463 0.01463 0.01463 0.01463 0.01463 0.01431 0.01447 0.01431 0.01431 0.01431 0.01415 0.01415 0.01415 0.01415 0.014 0.01384 0.01384 0.01384 0.01384 0.01368 0.01368 0.01368 0.01352 0.01353 0.01352 0.01337 0.01337 0.01337 0.01321 0.01321 0.01321 0.01321 0.01305 0.0129 0.0129 0.0129 0.0129 0.01274 0.01274 0.01274 0.01258 0.01258 0.01242 0.01242 0.01242 0.01242 0.01227 0.01227 0.01227 0.01195 0.01211 0.01195 0.01195 0.01179 0.0118 0.01164 0.01164 0.01164 0.01148 0.01148 0.01148 0.01132 0.01132 0.01117 0.01132 0.01101 0.01101 0.01101 0.01085 0.01085 0.0107 0.01085 0.01054 0.01054 0.01054 0.01038 c 0.801313,0 3.063322,-0.293407 5.668441,-0.68433 2.56373,-0.384688 5.354532,-0.846765 7.140855,-1.154723 l 0.01337,-0.0024 0.01352,-0.0019 z m -1.169558,2.076139 -9.783394,1.397668 c -1.79634,0.309564 -4.593567,0.772587 -7.16807,1.158974 -2.539633,0.381098 -4.971449,0.705214 -5.9489,0.705214 h -0.01038 -0.01054 -0.01054 -0.01054 -0.01085 -0.01069 -0.01085 -0.01085 -0.01101 -0.01101 -0.01101 -0.01132 -0.01117 -0.01132 -0.01132 -0.01148 -0.01148 -0.01148 -0.01164 -0.01164 -0.01164 -0.01179 -0.0118 -0.01195 -0.01195 -0.01211 -0.01195 -0.01227 -0.01227 -0.01227 -0.01242 -0.01242 -0.01242 -0.01242 -0.01258 -0.01258 -0.01274 -0.01274 -0.01274 -0.0129 -0.0129 -0.0129 -0.01289 -0.01305 -0.01321 -0.01321 -0.01321 -0.01321 -0.01337 -0.01337 -0.01337 -0.01352 -0.01352 -0.01352 -0.01368 -0.01368 -0.01368 -0.01384 -0.01384 -0.01384 -0.01384 -0.014 -0.01415 -0.01415 -0.01415 -0.01415 -0.01431 -0.01431 -0.01431 -0.01447 -0.01431 -0.01463 -0.01463 -0.01463 -0.01463 -0.01463 -0.01478 -0.01478 -0.01478 -0.01478 -0.01494 -0.01494 -0.0151 -0.0151 -0.0151 -0.01525 -0.0151 -0.01525 -0.01525 -0.01525 -0.01541 -0.01541 -0.01557 -0.01557 -0.01557 -0.01557 -0.01557 -0.01573 -0.01577 -0.01573 -0.01577 -0.01587 -0.01587 -0.01587 -0.01596 -0.01596 -0.01607 -0.01606 -0.01617 -0.01615 -0.01617 -0.01625 -0.01625 -0.01636 -0.01634 -0.01635 -0.01645 -0.01645 -0.01654 -0.01655 -0.01654 -0.01662 -0.01664 -0.01664 -0.01673 -0.01672 -0.01681 -0.01681 -0.01683 -0.01691 -0.01692 -0.01702 -0.01691 -0.01711 -0.01702 -0.01709 -0.01711 -0.01721 -0.01721 -0.0172 -0.01719 -0.0173 -0.0173 -0.01739 -0.01739 -0.01739 -0.01749 -0.01739 -0.01758 -0.01749 -0.01758 -0.01758 -0.01758 -0.01766 -0.01768 -0.01768 -0.01777 -0.01777 -0.01777 -0.01777 -0.01787 -0.01787 -0.01787 -0.01794 -0.01794 -0.01796 -0.01799 -0.01802 -0.01804 -0.01807 -0.01809 -0.01812 -0.01813 -0.01816 -0.0182 -0.01821 -0.01823 -0.01826 -0.01827 -0.01831 -0.01832 -0.01834 -0.01835 -0.01839 -0.0184 -0.01843 -0.01845 -0.01846 -0.01849 -0.01851 -0.01853 -0.01854 -0.01857 -0.01859 -0.0186 -0.01862 -0.01864 -0.01865 -0.01868 -0.01868 -0.01872 -0.01873 -0.01875 -0.01876 -0.01878 -0.01879 -0.01881 -0.01882 -0.01883 -0.01886 -0.01887 -0.01887 -0.0189 -0.01892 -0.01892 -0.01895 -0.01895 -0.01897 -0.01897 -0.019 -0.01901 -0.01901 -0.01903 -0.01904 -0.01905 -0.01906 -0.01908 -0.01909 -0.01909 -0.01911 -0.01912 -0.01912 -0.01914 -0.01914 -0.01916 -0.01915 -0.01917 -0.01919 -0.01919 -0.0192 -0.0192 -0.01922 -0.01922 -0.01923 -0.01923 -0.01923 -0.01925 -0.01925 -0.01925 -0.01927 -0.01927 -0.01926 -0.01928 -0.01928 -0.01928 -0.01928 -0.01928 -0.0193 H 7.658279 7.638982 7.61967 7.600358 7.581046 7.561734 7.542422 7.52311 7.503798 7.484486 7.465174 7.445862 7.42655 7.407238 7.38791 7.368598 7.349286 7.329974 7.310662 7.29135 7.272038 7.252726 7.233429 7.214132 7.19482 7.175523 7.156226 7.136929 7.117648 7.098367 7.079086 7.059805 7.04054 7.021275 7.00201 6.982761 6.963496 6.944262 6.925028 6.905794 6.88656 6.867342 6.848124 6.828906 6.809719 6.790532 6.771345 6.752174 6.733003 6.713848 6.694709 6.67557 6.656431 6.637307 6.618199 6.599091 6.579999 6.560922 6.541861 6.522816 6.503771 6.484742 6.465713 6.446699 6.427701 6.408719 6.389753 6.370802 6.351851 6.332916 6.313997 6.295093 6.27619 6.257318 6.238462 6.219606 6.200781 6.181972 6.163179 6.144401 6.125639 6.106877 6.088147 6.069432 6.050733 6.03205 6.013383 5.994731 5.976111 5.957491 5.938886 5.920313 5.901755 5.883213 5.864703 5.846208 5.827729 5.809282 5.79085 5.772434 5.754034 5.735665 5.717611 c 1.8337784,1.784812 4.028706,3.200433 6.464869,4.126762 3.62651,-0.460377 7.950578,-1.374233 10.200682,-1.914269 l 0.108671,-0.02607 h 0.11188 0.01956 0.01966 0.01975 0.01985 0.01994 0.02004 0.02013 0.02022 0.02022 0.02041 0.02041 0.02051 0.0206 0.0207 0.02079 0.02088 0.02098 0.02098 0.02117 0.02117 0.02126 0.02136 0.02136 0.02155 0.02155 0.02173 0.02173 0.02183 0.02183 0.02202 0.02202 0.02211 0.02221 0.0223 0.0223 0.02239 0.02258 0.02249 0.02268 0.02268 0.02277 0.02287 0.02296 0.02296 0.02306 0.02315 0.02324 0.02324 0.02334 0.02343 0.02353 0.02353 0.02362 0.02372 0.02372 0.02381 0.0239 0.0239 0.024 0.02409 0.02419 0.02419 0.02428 0.02428 0.02447 0.02438 0.02457 0.02456 0.02466 0.02466 0.02475 0.02485 0.02485 0.02494 0.02504 0.02504 0.02513 0.02513 0.02523 0.02532 0.02532 0.02541 0.02541 0.02551 0.0256 0.0256 0.0257 0.0257 0.02579 0.02579 0.02589 0.02589 0.02598 0.02607 0.02607 0.02617 0.02617 0.02617 0.02628 0.02636 0.02636 0.02645 0.02645 0.02655 0.02655 0.02664 0.02664 0.02673 0.02674 0.02673 0.02683 0.02692 0.02692 0.02692 0.02702 0.02702 0.02713 0.02711 0.02722 0.02721 0.0273 0.02722 0.0274 0.0274 0.02741 0.02741 0.02749 0.02759 0.02751 0.02758 0.0277 0.02768 0.02769 0.02779 0.02777 0.02777 0.02788 0.02787 0.02787 0.02798 0.02796 0.02798 0.02807 0.02806 0.02817 0.02807 0.02815 0.02826 0.02815 0.02826 0.02826 0.02836 0.02836 0.02834 0.02835 0.02845 0.02843 0.02845 0.02854 0.02845 0.02854 0.02854 0.02864 0.02864 0.02864 0.02864 0.02862 0.02873 0.02872 0.02873 0.02873 0.02883 0.02873 0.02883 0.02883 0.02892 0.02883 0.02892 0.02892 0.02892 0.02892 0.02892 0.02902 0.02892 0.02902 0.02902 0.02902 0.02911 0.02902 0.02902 0.02911 0.02911 0.02911 0.02911 0.02911 0.02911 0.02911 0.02921 0.02911 0.0292 0.02921 0.02911 0.0292 0.02921 0.0292 0.0292 0.0292 0.0293 0.0292 0.0292 0.0292 0.0293 0.02921 0.0292 0.0293 0.02921 0.0293 0.0292 0.0293 0.0292 0.0293 0.02921 0.0293 0.02921 0.0293 0.0292 0.0293 0.02919 0.0292 0.0293 0.02921 0.0292 0.0292 0.02921 0.02919 0.0292 0.02921 0.0292 0.02921 0.0292 0.02911 0.02921 0.02911 0.0292 0.02911 0.02911 0.02911 0.02911 0.02911 0.02902 0.02911 0.02902 0.02902 0.02911 0.02902 0.02892 5.42e-4 c 2.142945,-1.430268 3.977084,-3.286707 5.381367,-5.448269 z m -15.85958,8.616574 c -0.623662,0 -1.24024,-0.03024 -1.8485,-0.0892 2.244432,-0.414548 4.321327,-0.868878 5.665605,-1.189214 h 0.0074 0.02013 0.02022 0.02022 0.02041 0.02041 0.02051 0.0206 0.0207 0.02079 0.02088 0.02098 0.02098 0.02117 0.02117 0.02126 0.02136 0.02136 0.02155 0.02155 0.02173 0.02173 0.02183 0.02183 0.02202 0.02202 0.02211 0.02221 0.0223 0.0223 0.02239 0.02258 0.02249 0.02268 0.02268 0.02277 0.02287 0.02296 0.02296 0.02306 0.02315 0.02325 0.02324 0.02334 0.02343 0.02353 0.02353 0.02362 0.02371 0.02372 0.02381 0.02391 0.0239 0.024 0.02409 0.02419 0.02419 0.02428 0.02428 0.02447 0.02438 0.02457 0.02457 0.02466 0.02466 0.02475 0.02485 0.02485 0.02494 0.02504 0.02504 0.02513 0.02513 0.02522 0.02532 0.02532 0.02541 0.02541 0.02551 0.0256 0.0256 0.0257 0.0257 0.02579 0.02579 0.02589 0.02589 0.02598 0.02608 0.02607 0.02617 0.02617 0.02617 0.02628 0.02636 0.02636 0.02645 0.02645 0.02655 0.02655 0.02664 0.02664 0.02674 0.02674 0.02674 0.02683 0.02692 0.02694 0.02692 0.02702 0.02702 0.02713 0.02711 0.02721 0.02721 0.0273 0.02721 0.0274 0.02741 0.0274 0.02741 0.02751 0.02758 0.02749 0.02758 0.0022 c -2.122914,0.825504 -4.431981,1.278415 -6.846882,1.278415 z M 34.15763,23.686556 37.436777,22.593444 c 0.236803,-1.194787 0.36097,-2.430209 0.36097,-3.694546 0,-0.287452 -0.0064,-0.573392 -0.01908,-0.857726 L 27.146898,15.448054 13.734822,21.610418 13.433195,21.748955 13.111158,21.66845 0.00661,18.392326 C 0.00221,18.56062 0,18.729482 0,18.898911 c 0,0.809629 0.050907,1.607352 0.1497024,2.390143 h 0.9619974 0.088604 l 0.087063,0.01645 13.4241152,2.539728 5.661544,-2.476889 0.181052,-0.07928 h 0.197683 3.335088 8.152418 0.548448 l 0.272048,0.476157 z M 0.1531812,16.480879 c 0.045686,-0.357757 0.1013743,-0.712394 0.166788,-1.063537 l 8.4534332,1.083759 0.05984,0.0077 h 0.06033 8.1524396 0.143254 l 0.136822,-0.04243 9.484224,-2.94341 -0.153555,0.07049 -13.409241,6.16104 z M 1.9360916,10.55664 C 1.462674,11.517461 1.0684907,12.5243 0.76206082,13.568653 l 8.19182558,1.050212 h 7.9488586 l 10.609652,-3.292661 0.05217,-0.01617 0.05377,-0.01007 5.929059,-1.111728 0.164419,-0.03081 0.165083,0.02749 1.96265,0.32714 C 35.184034,9.1905525 34.378471,7.9566799 33.445148,6.8327243 l -3.45661,-1.0369917 -9.016287,2.1639149 -0.02136,0.00503 -0.02145,0.00409 L 3.5127731,11.30383 3.1232575,11.37848 2.7971848,11.152733 Z m 35.6480964,5.491832 c -0.181334,-1.198947 -0.475401,-2.360945 -0.870956,-3.474847 l -2.982057,-0.49704 -5.71087,1.070812 -1.025547,0.318258 0.280459,0.06841 z"
     fill="#8e7561"
     id="path1"
     style="stroke-width:0.999999" />
</svg>
