<svg width="88" height="44" viewBox="0 0 88 44" fill="none" xmlns="http://www.w3.org/2000/svg">
<path d="M30.0959 1L25.0775 31.1345C16.7226 25.6223 8.88241 18.5315 1 12.178L17.0444 6.01398L30.0959 1Z" fill="#6C749E" stroke="black" stroke-width="0.377953" stroke-linecap="round"/>
<path d="M12.5951 43.6496C10.6768 43.6496 9.10855 43.3904 7.89021 42.8719C6.69779 42.3536 5.71272 41.511 4.93506 40.3446C4.1574 39.1781 3.4964 37.5579 2.95203 35.4841L7.15143 34.3175C7.56615 35.7691 7.96793 36.8579 8.35676 37.5837C8.77149 38.3096 9.28996 38.8151 9.9121 39.1002C10.5601 39.3859 11.4545 39.5282 12.5951 39.5282C14.2022 39.5282 15.4335 39.2169 16.289 38.5952C17.1703 37.9473 17.7924 36.8323 18.1553 35.251C18.5441 33.6698 18.7386 31.3887 18.7386 28.4076V16.1206H13.6449V11.999H23.2102V28.4076C23.2102 32.2182 22.8732 35.2254 22.1992 37.4287C21.5253 39.6062 20.4235 41.1874 18.8941 42.1724C17.3647 43.1574 15.265 43.6496 12.5951 43.6496ZM36.5637 43.6496C34.464 43.6496 32.805 43.3388 31.5867 42.7163C30.3683 42.0684 29.487 41.0314 28.9426 39.6057C28.3982 38.18 28.126 36.2358 28.126 33.7731V19.0755H32.5976V33.7731C32.5976 35.3803 32.7013 36.5858 32.9087 37.3894C33.142 38.193 33.5308 38.7503 34.0751 39.0614C34.6454 39.3728 35.475 39.528 36.5637 39.528C38.1709 39.528 39.3633 39.3984 40.1409 39.1393C40.9445 38.8801 41.5018 38.4263 41.8129 37.7784C42.124 37.1047 42.2795 36.1194 42.2795 34.8232V19.0755H46.79V43.1055H42.2795V42.7167C40.9316 43.3389 39.0263 43.6496 36.5637 43.6496ZM52.4058 43.1055V19.0757H56.8773V21.0587C57.4994 20.3843 58.303 19.8015 59.2881 19.3091C60.2731 18.7908 61.3359 18.5314 62.4765 18.5314C63.98 18.5314 65.2243 18.7389 66.2093 19.1534C67.1943 19.5422 68.0368 20.1904 68.7367 21.0976C69.4625 21.9789 70.1105 23.2103 70.6808 24.7916L66.6758 26.6189C66.313 25.4784 65.976 24.6359 65.6649 24.0916C65.3539 23.5475 64.952 23.1714 64.4595 22.964C63.993 22.7571 63.332 22.6534 62.4765 22.6534C60.4546 22.6534 59.0159 23.3534 58.1604 24.7529C57.305 26.1268 56.8773 28.1357 56.8773 30.7798V43.1059L52.4058 43.1055ZM81.6894 43.6496C79.8749 43.6496 78.4621 43.3776 77.4512 42.8331C76.4661 42.289 75.7532 41.3814 75.3125 40.1112C74.8978 38.841 74.6904 37.0523 74.6904 34.7453V16.1203H69.7911V11.9985H79.162V34.7453C79.162 36.5598 79.3435 37.8171 79.7064 38.517C80.0693 39.1906 80.7303 39.528 81.6894 39.528C82.156 39.528 82.6485 39.3726 83.167 39.0611C83.7114 38.7497 84.4631 38.1926 85.4222 37.3892L87.9107 41.1997C86.7701 42.1329 85.7462 42.768 84.8389 43.105C83.9576 43.468 82.9077 43.6496 81.6894 43.6496Z" fill="white"/>
</svg>
