<?xml version="1.0" encoding="UTF-8" standalone="no"?>
<svg
   width="524.84937"
   height="146.35596"
   viewBox="0 0 524.84938 146.35596"
   fill="none"
   version="1.1"
   id="svg1"
   xmlns:xlink="http://www.w3.org/1999/xlink"
   xmlns="http://www.w3.org/2000/svg"
   xmlns:svg="http://www.w3.org/2000/svg">
  <defs
     id="defs1">
    <linearGradient
       id="linearGradient2">
      <stop
         style="stop-color:#f7b41c;stop-opacity:1;"
         offset="0"
         id="stop2" />
      <stop
         style="stop-color:#8c5425;stop-opacity:1;"
         offset="1"
         id="stop3" />
    </linearGradient>
    <clipPath
       clipPathUnits="userSpaceOnUse"
       id="clipPath14">
      <rect
         style="fill:#171103;fill-opacity:1;stroke-width:7.55906;stroke-linecap:round;paint-order:markers fill stroke"
         id="rect15"
         width="121.4749"
         height="56.185394"
         x="69.198059"
         y="0.13388692"
         rx="6.9831171"
         ry="6.9831171" />
    </clipPath>
    <linearGradient
       xlink:href="#linearGradient2"
       id="linearGradient18"
       gradientUnits="userSpaceOnUse"
       gradientTransform="matrix(0.53867021,0,0,0.53867021,75.781711,-18.152336)"
       x1="97.549904"
       y1="81.676918"
       x2="101.17993"
       y2="93.642334" />
  </defs>
  <g
     id="g15"
     transform="translate(50.72293,-149.3526)">
    <rect
       style="fill:#0d0a02;fill-opacity:1;stroke-width:7.55906;stroke-linecap:round;paint-order:markers fill stroke"
       id="rect16"
       width="524.84937"
       height="146.35596"
       x="-50.722931"
       y="149.3526"
       rx="4.6420588"
       ry="4.6420588" />
    <g
       id="g18"
       transform="matrix(5.2714709,0,0,5.2714709,-473.24949,73.734953)"
       clip-path="url(#clipPath14)"
       style="stroke-width:0.1897">
      <g
         id="g17"
         transform="matrix(0.22727917,0,0,0.22727917,108.74586,23.931258)"
         style="stroke-width:0.834657">
        <path
           id="path16"
           style="opacity:1;fill:#fff6d5;stroke-width:4.02679;stroke-linejoin:round;paint-order:markers fill stroke"
           d="M 23.404291,0.62304684 C 20.230274,1.4958105 17.687784,1.4934555 15.812494,1.2753906 14.886178,1.1676863 14.119304,1.0070077 13.496088,0.86718746 A 18.868641,18.868641 0 0 0 9.6621036,2.4628906 h 0.025391 0.029297 0.029297 0.029297 0.029297 0.029297 0.027344 0.029297 0.029297 0.027344 0.029297 0.027344 0.02734 0.02734 0.02734 0.02734 0.02734 0.02734 0.02734 0.02539 0.02734 0.02539 0.02734 0.02539 0.02539 0.02539 0.02539 0.02539 0.02539 0.02539 0.02539 0.02344 0.02539 0.02344 0.02539 0.02344 0.02344 0.02344 0.02344 0.02344 0.02148 0.02344 0.02344 0.02149 0.02148 0.02344 0.02148 0.02148 0.02149 0.02148 0.02149 0.01953 0.02148 0.01953 0.02149 0.01953 0.01953 0.01953 0.01953 0.01953 0.01953 0.01758 0.01953 0.01758 0.01953 0.01758 0.01758 0.01758 0.01758 0.01562 0.01758 0.01758 0.01563 0.01758 0.01563 0.01563 0.01563 0.01563 0.01563 0.01367 0.01563 0.01367 0.01563 0.01367 0.01367 0.01367 0.01367 0.01367 0.01172 0.01367 0.01172 0.01172 0.01172 0.01367 0.0098 0.01172 0.01172 0.0098 0.01172 0.0098 0.0098 0.0098 0.0098 0.0098 0.0098 0.0078 0.0098 0.0078 0.0078 0.0078 0.0078 0.0078 0.0059 0.0078 0.0059 c 0.03477,0 0.138417,0.010043 0.367187,0.056641 0.155161,0.031611 0.328844,0.071709 0.53711,0.1191407 0.08457,0.019265 0.176577,0.040687 0.273437,0.0625 0.654942,0.1475243 1.513863,0.3296989 2.558594,0.4511719 2.096361,0.2437574 4.906862,0.2407061 8.375,-0.7226563 0.933262,-0.2592264 1.855653,-0.4739963 2.753906,-0.6542969 A 18.868641,18.868641 0 0 0 23.404291,0.62304684 Z m 6.638672,3.21679696 -0.248047,0.058594 -9.242188,2.21875 L 3.5468692,9.3730469 2.9257754,8.9453125 A 18.868641,18.868641 0 0 0 2.1328067,10.242188 l -0.0625,0.123046 a 18.868641,18.868641 0 0 0 -0.091797,0.220704 l 0.8183594,0.566406 0.3261719,0.226562 0.390625,-0.07422 17.416016,-3.335938 0.02148,-0.00391 0.02148,-0.00586 9.015625,-2.1640625 3.396485,1.0195312 A 18.868641,18.868641 0 0 0 30.400385,3.9453125 l -0.113282,-0.033203 z m 3.667969,6.3183592 -0.164063,0.0293 -5.927734,1.113281 -0.05469,0.0098 -0.05273,0.01563 -10.609375,3.292969 H 8.9531192 L 0.83593172,13.578125 a 18.868641,18.868641 0 0 0 -0.48046875,1.84375 l 8.41796873,1.080078 0.060547,0.0078 h 0.060547 8.1523443 0.142578 l 0.136719,-0.04297 9.484375,-2.943359 -0.154298,0.07033 L 13.248041,19.753906 0.23046297,16.5 a 18.868641,18.868641 0 0 0 -0.17578125,1.904297 l 13.05664028,3.263672 0.322266,0.08008 0.300781,-0.136719 13.412109,-6.164062 10.595704,2.583984 a 18.868641,18.868641 0 0 0 -0.197266,-1.992188 l -10.269531,-2.505859 -0.28125,-0.06836 1.02539,-0.31836 5.710938,-1.070312 2.9375,0.490234 a 18.868641,18.868641 0 0 0 -0.871094,-2.0625 l -1.919922,-0.31836 z M 0.21093172,21.289062 a 18.868641,18.868641 0 0 0 0.328125,1.890626 H 1.0234317 l 13.6230463,2.576171 0.28711,0.05469 0.267578,-0.117188 5.748047,-2.513671 h 3.136719 7.605468 l 1.208985,2.117187 0.384765,0.671875 0.734375,-0.244141 2.800781,-0.933593 a 18.868641,18.868641 0 0 0 0.572266,-2.181641 L 34.158197,23.6875 33.060541,21.765625 32.787103,21.289062 h -0.546875 -8.154296 -3.333985 -0.197265 l -0.181641,0.08008 -5.662109,2.476562 -13.4238284,-2.541015 -0.085937,-0.01563 H 1.1113226 Z M 35.8789,27.113281 l -11.183594,1.595703 -0.01367,0.002 -0.01367,0.0039 c -1.786323,0.307958 -4.576895,0.769609 -7.140625,1.154297 -2.605119,0.390923 -4.866656,0.683593 -5.667969,0.683593 h -0.0098 -0.01172 -0.0098 -0.01172 -0.0098 -0.01172 -0.0098 -0.01172 -0.0098 -0.01172 -0.01172 -0.0098 -0.01172 -0.01172 -0.01172 -0.01172 -0.01172 -0.0098 -0.01172 -0.01172 -0.01172 -0.01172 -0.01172 -0.01367 -0.01172 -0.01172 -0.01172 -0.01172 -0.01367 -0.01172 -0.01172 -0.01367 -0.01172 -0.01172 -0.01367 -0.01172 -0.01367 -0.01172 -0.01367 -0.01172 -0.01367 -0.01172 -0.01367 -0.01367 -0.01367 -0.01172 -0.01367 -0.01367 -0.01367 -0.01367 -0.01172 -0.01367 -0.01367 -0.01367 -0.01367 -0.01367 -0.01367 -0.01367 -0.01367 -0.01367 -0.01563 -0.01367 -0.01367 -0.01367 -0.01367 -0.01563 -0.01367 -0.01367 -0.01563 -0.01367 -0.01367 -0.01563 -0.01367 -0.01563 -0.01367 -0.01563 -0.01367 -0.01563 -0.01563 -0.01367 -0.01563 -0.01367 -0.01563 -0.01563 -0.01563 -0.01367 -0.01563 -0.01563 -0.01563 -0.01563 -0.01367 -0.01563 -0.01563 -0.01563 -0.01563 -0.01563 -0.01563 -0.01563 -0.01563 -0.01563 -0.01563 -0.01758 -0.01563 -0.01563 -0.01563 -0.01563 -0.01563 -0.01758 -0.01563 -0.01563 -0.01563 -0.01758 -0.01563 -0.01562 -0.01758 -0.01563 -0.01758 -0.01563 -0.01758 -0.01563 -0.01563 -0.01758 -0.01563 -0.01758 -0.01758 -0.01563 -0.01758 -0.01563 -0.01758 -0.01758 -0.01563 -0.01758 H 9.986322 9.9706973 9.9531192 9.9355411 9.917963 9.902338 9.8847598 9.8671817 9.8496036 9.8320254 9.8144473 9.7968692 9.7812442 9.7636661 9.746088 9.7285098 9.7109317 9.6933536 9.6757754 9.6581973 9.6406192 9.6230411 9.605463 9.5878848 9.5703067 9.5527286 9.5331973 9.5156192 9.4980411 9.480463 9.4628848 9.4453067 9.4277286 9.4081973 9.3906192 9.3730411 9.355463 9.3359317 9.3183536 9.3007754 9.2831973 9.2636661 9.246088 9.2285098 9.2089786 9.1914004 9.1738223 9.1542911 9.136713 9.1171817 9.0996036 9.0820254 9.0624942 9.0449161 9.0253848 9.0078067 8.9882754 8.9706973 8.9511661 8.933588 8.9140567 8.8964786 8.8769473 8.8593692 8.839838 8.8222598 8.8027286 8.7851504 8.7656192 8.746088 8.7285098 8.7089786 8.6914004 8.6718692 8.652338 8.6347598 8.6152286 8.5956973 8.5781192 8.558588 8.5390567 8.5214786 8.5019473 8.4824161 8.464838 8.4453067 8.4257754 8.4081973 8.3886661 8.3691348 8.3496036 8.3320254 8.3124942 8.292963 8.2734317 8.2558536 8.2363223 8.2167911 8.1972598 8.1777286 8.1601504 8.1406192 8.121088 8.1015567 8.0820254 8.0644473 8.0449161 8.0253848 8.0058536 7.9863223 7.9667911 7.949213 7.9296817 7.9101504 7.8906192 7.871088 7.8515567 7.8320254 7.8144473 7.7949161 7.7753848 7.7558536 7.7363223 7.7167911 7.6972598 7.6777286 7.6601504 7.6406192 7.621088 7.6015567 7.5820254 7.5624942 7.542963 7.5234317 7.5039004 7.4863223 7.4667911 7.4472598 7.4277286 7.4081973 7.3886661 7.3691348 7.3496036 7.3300723 7.3124942 7.292963 7.2734317 7.2539004 7.2343692 7.214838 7.1953067 7.1757754 7.1581973 7.1386661 7.1191348 7.0996036 7.0800723 7.0605411 7.0410098 7.0214786 7.0039004 6.9843692 6.964838 6.9453067 6.9257754 6.9062442 6.886713 6.8691348 6.8496036 6.8300723 6.8105411 6.7910098 6.7714786 6.7539004 6.7343692 6.714838 6.6953067 6.6757754 6.6581973 6.6386661 6.6191348 6.5996036 6.5800723 6.5624942 6.542963 6.5234317 6.5039004 6.4863223 6.4667911 6.4472598 6.4296817 6.4101504 6.3906192 6.371088 6.3535098 6.3339786 6.3144473 6.2968692 6.277338 6.2578067 6.2402286 6.2206973 6.2011661 6.183588 6.1640567 6.1445254 6.1269473 6.1074161 6.089838 6.0703067 6.0527286 6.0331973 6.0136661 5.996088 5.9765567 5.9589786 5.9394473 5.9218692 5.902338 5.8847598 5.8652286 5.8476504 5.8281192 5.8105411 5.7910098 5.7734317 5.7558536 5.7363223 5.7187442 5.699213 5.6816348 5.6640567 5.6445254 5.6269473 5.6093692 5.589838 5.5722598 5.5546817 5.5351504 5.5175723 5.4999942 5.4824161 5.4628848 5.4453067 5.4277286 5.4101504 5.3925723 5.3749942 5.355463 5.3378848 5.3203067 5.3027286 5.2851504 5.2675723 5.2499942 5.2324161 5.214838 5.1972598 5.1796817 5.1621036 5.1445254 5.1269473 5.1093692 5.0917911 5.074213 5.0566348 5.0390567 5.0214786 5.0039004 4.9882754 4.9706973 4.9531192 4.9355411 4.917963 4.902338 4.8847598 4.8671817 4.8496036 4.8339786 4.8164004 4.7988223 4.7831973 4.7656192 4.7499942 4.7324161 4.714838 4.699213 4.6816348 4.6660098 4.6484317 4.6328067 4.6152286 4.5996036 4.5839786 4.5664004 4.5507754 4.5331973 4.5175723 4.5019473 4.4843692 4.4687442 4.4531192 4.4374942 4.4199161 4.4042911 4.3886661 4.3730411 4.3574161 4.3417911 4.3261661 4.308588 4.292963 4.277338 4.261713 4.246088 4.230463 4.214838 4.2011661 4.1855411 4.1699161 4.1542911 4.1386661 4.1230411 4.1074161 4.0937442 4.0781192 4.0683536 a 18.868641,18.868641 0 0 0 1.7167968,1.890625 h 0.00586 0.017578 0.019531 0.017578 0.019531 0.017578 0.019531 0.017578 0.019531 0.017578 0.019531 0.017578 0.019531 0.017578 0.019531 0.019531 0.017578 0.019531 0.017578 0.019531 0.019531 0.017578 0.019531 0.017578 0.019531 0.019531 0.017578 0.019531 0.019531 0.017578 0.019531 0.019531 0.019531 0.017578 0.019531 0.019531 0.017578 0.019531 0.019531 0.019531 0.017578 0.019531 0.019531 0.019531 0.019531 0.017578 0.019531 0.019531 0.019531 0.019531 0.017578 0.019531 0.019531 0.019531 0.019531 0.017578 0.019531 0.019531 0.019531 0.019531 0.019531 0.017578 0.019531 0.019531 0.019531 0.019531 0.019531 0.019531 0.019531 0.017578 0.019531 0.019531 0.019531 0.019531 0.019531 0.019531 0.019531 0.017578 0.019531 0.019531 0.019531 0.019531 0.019531 0.019531 0.019531 0.019531 0.017578 0.019531 0.019531 0.019531 0.019531 0.019531 0.019531 0.019531 0.017578 0.019531 0.019531 0.019531 0.019531 0.019531 0.019531 0.019531 0.019531 0.017578 0.019531 0.019531 0.019531 0.019531 0.019531 0.019531 0.017578 0.019531 0.019531 0.019531 0.019531 0.019531 0.019531 0.017578 0.019531 0.019531 0.019531 0.019531 0.017578 0.019531 0.019531 0.019531 0.019531 0.017578 0.019531 0.019531 0.019531 0.019531 0.017578 0.019531 0.019531 0.019531 0.017578 0.019531 0.019531 0.017578 0.019531 0.019531 0.019531 0.017578 0.019531 0.019531 0.017578 0.019531 0.019531 0.017578 0.019531 0.019531 0.017578 0.019531 0.017578 0.019531 0.019531 0.017578 0.019531 0.017578 0.019531 0.017578 0.019531 0.017578 0.019531 0.017578 0.019531 0.017578 0.019531 0.017578 0.019531 0.017578 0.019531 0.017578 0.019531 0.017578 0.017578 0.019531 0.017578 0.017578 0.019531 0.017578 0.017578 0.019531 0.017578 0.017578 0.019531 0.017578 0.017578 0.017578 0.019531 0.017578 0.017578 0.017578 0.017578 0.019531 0.017578 0.017578 0.017578 0.017578 0.017578 0.017578 0.017578 0.017578 0.017578 0.017578 0.017578 0.017578 0.017578 0.017578 0.017578 0.017578 0.017578 0.017578 0.017578 0.017578 0.017578 0.015625 0.017578 0.017578 0.017578 0.017578 0.015625 0.017578 0.017578 0.015625 0.01758 0.01758 0.01758 0.01562 0.01758 0.01563 0.01758 0.01563 0.01758 0.01758 0.01563 0.01758 0.01563 0.01563 0.01758 0.01563 0.01758 0.01563 0.01563 0.01758 0.01562 0.01563 0.01758 0.01563 0.01563 0.01563 0.01563 0.01758 0.01563 0.01563 0.01563 0.01563 0.01563 0.01563 0.01563 0.01563 0.01563 0.01563 0.01563 0.01563 0.01563 0.01563 0.01563 0.01563 0.01367 0.01563 0.01563 0.01563 0.01367 0.01563 0.01562 0.01367 0.01563 0.01563 0.01367 0.01563 0.01367 0.01563 0.01367 0.01563 0.01367 0.01367 0.01563 0.01367 0.01563 0.01367 0.01367 0.01367 0.01563 0.01367 0.01367 0.01367 0.01367 0.01367 0.01367 0.01367 0.01367 0.01367 0.01367 0.01367 0.01367 0.01367 0.01367 0.01367 0.01172 0.01367 0.01367 0.01367 0.01172 0.01367 0.01367 0.01172 0.01367 0.01172 0.01367 0.01172 0.01367 0.01172 0.01367 0.01172 0.01172 0.01367 0.01172 0.01172 0.01367 0.01172 0.01172 0.01172 0.01172 0.01172 0.01172 0.01172 0.01172 0.01172 0.01172 0.01172 0.01172 0.0098 0.01172 0.01172 0.01172 0.0098 0.01172 0.01172 0.0098 0.01172 0.0098 0.01172 0.0098 0.01172 0.0098 0.0098 c 0.977451,0 3.409586,-0.32398 5.949219,-0.705078 2.574503,-0.386387 5.371628,-0.850592 7.167968,-1.160156 l 9.691407,-1.382813 a 18.868641,18.868641 0 0 0 1.029296,-1.701171 18.868641,18.868641 0 0 0 0.183594,-0.38086 z m -13.386718,7.515625 -0.109376,0.02734 c -2.222011,0.533294 -6.464493,1.428847 -10.0625,1.894531 a 18.868641,18.868641 0 0 0 4.976563,1.109375 c 2.144001,-0.401175 4.127819,-0.832722 5.419922,-1.140625 h 0.0059 0.02148 0.01953 0.01953 0.02148 0.01953 0.02148 0.01953 0.02148 0.02148 0.01953 0.02148 0.02148 0.02148 0.01953 0.02148 0.02148 0.02148 0.02148 0.02148 0.02148 0.02148 0.02344 0.02148 0.02148 0.02148 0.02344 0.02148 0.02148 0.02344 0.02148 0.02344 0.02148 0.02344 0.02344 0.02148 0.02344 0.02344 0.02344 0.02148 0.02344 0.02344 0.02344 0.02344 0.02344 0.02344 0.02344 0.02344 0.02344 0.02344 0.02539 0.02344 0.02344 0.02344 0.02539 0.02344 0.02539 0.02344 0.02344 0.02539 0.02344 0.02539 0.02539 0.02344 0.02539 0.02344 0.02539 0.02539 0.02539 0.02344 0.02539 0.02539 0.02539 0.02539 0.02539 0.02539 0.02539 0.02539 0.02539 0.02539 0.02539 0.02539 0.02539 0.02734 0.02539 0.02539 0.02539 0.02734 0.02539 0.02539 0.02734 0.02539 0.02734 0.02539 0.02734 0.02539 0.02734 0.02539 0.02734 0.02539 0.02734 0.02734 0.02539 0.02734 0.02734 0.02539 0.02734 0.02734 0.02734 0.02734 0.02539 0.02734 0.02734 0.02734 0.02734 0.02734 0.02734 0.02734 0.02344 a 18.868641,18.868641 0 0 0 0.0039,0 18.868641,18.868641 0 0 0 3.660156,-1.890625 h -0.0078 -0.0293 -0.02734 -0.0293 -0.0293 -0.0293 -0.0293 -0.0293 -0.0293 -0.0293 -0.0293 -0.0293 -0.0293 -0.0293 -0.0293 -0.0293 -0.02734 -0.0293 -0.0293 -0.0293 -0.0293 -0.0293 -0.0293 -0.0293 -0.0293 -0.0293 -0.0293 -0.0293 -0.0293 -0.0293 -0.0293 -0.0293 -0.0293 -0.0293 -0.0293 -0.0293 -0.0293 -0.0293 -0.0293 -0.0293 -0.0293 -0.0293 -0.0293 -0.0293 -0.0293 -0.0293 -0.0293 -0.02734 -0.0293 -0.0293 -0.0293 -0.0293 -0.0293 -0.0293 -0.0293 -0.0293 -0.0293 -0.0293 -0.0293 -0.0293 -0.02734 -0.0293 -0.0293 -0.0293 -0.0293 -0.0293 -0.0293 -0.0293 -0.02734 -0.0293 -0.0293 -0.0293 -0.0293 -0.02734 -0.0293 -0.0293 -0.0293 -0.0293 -0.02734 -0.0293 -0.0293 -0.0293 -0.02734 -0.0293 -0.0293 -0.02734 -0.0293 -0.0293 -0.02734 -0.0293 -0.0293 -0.02734 -0.0293 -0.02734 -0.0293 -0.0293 -0.02734 -0.0293 -0.02734 -0.0293 -0.02734 -0.0293 -0.02734 -0.02734 -0.0293 -0.02734 -0.0293 -0.02734 -0.0293 -0.02734 -0.02734 -0.0293 -0.02734 -0.02734 -0.02734 -0.0293 -0.02734 -0.02734 -0.02734 -0.0293 -0.02734 -0.02734 -0.02734 -0.02734 -0.02734 -0.02734 -0.02734 -0.02734 -0.02734 -0.02734 -0.02734 -0.02734 -0.02734 -0.02734 -0.02734 -0.02734 -0.02734 -0.02734 -0.02539 -0.02734 -0.02734 -0.02734 -0.02539 -0.02734 -0.02734 -0.02539 -0.02734 -0.02734 -0.02539 -0.02734 -0.02539 -0.02734 -0.02539 -0.02734 -0.02539 -0.02734 -0.02539 -0.02539 -0.02734 -0.02539 -0.02539 -0.02539 -0.02734 -0.02539 -0.02539 -0.02539 -0.02539 -0.02539 -0.02734 -0.02539 -0.02539 -0.02344 -0.02539 -0.02539 -0.02539 -0.02539 -0.02539 -0.02539 -0.02539 -0.02344 -0.02539 -0.02539 -0.02344 -0.02539 -0.02344 -0.02539 -0.02539 -0.02344 -0.02344 -0.02539 -0.02344 -0.02539 -0.02344 -0.02344 -0.02539 -0.02344 -0.02344 -0.02344 -0.02344 -0.02344 -0.02344 -0.02344 -0.02344 -0.02344 -0.02344 -0.02344 -0.02344 -0.02344 -0.02344 -0.02148 -0.02344 -0.02344 -0.02148 -0.02344 -0.02148 -0.02344 -0.02148 -0.02344 -0.02148 -0.02344 -0.02148 -0.02148 -0.02344 -0.02148 -0.02148 -0.02148 -0.02148 -0.02148 -0.02148 -0.02148 -0.02148 -0.02148 -0.02148 -0.02148 -0.01953 -0.02148 -0.02148 -0.01953 -0.02148 -0.02148 -0.01953 -0.02148 -0.01953 -0.01953 -0.02148 -0.01953 -0.01953 -0.02148 -0.01953 -0.01953 -0.01953 -0.01953 z" />
        <path
           fill-rule="evenodd"
           clip-rule="evenodd"
           d="M 23.56403,0.58017702 C 22.071867,0.2013264 20.508833,0 18.898836,0 16.963117,0 15.095339,0.29102444 13.33689,0.83170352 c 0.03741,0.00849 0.07494,0.016985 0.112635,0.025477 0.630467,0.1419806 1.415149,0.30735318 2.362362,0.41748728 1.88715,0.2194439 4.449274,0.2228174 7.651409,-0.66666108 0.03355,-0.00928 0.06718,-0.018605 0.10073,-0.027821 z M 9.562497,2.4634239 C 6.829866,4.0190678 4.523019,6.2365614 2.860086,8.8977528 l 0.686749,0.4754397 17.005656,-3.2563947 9.242792,-2.2182861 0.247952,-0.059494 0.244172,0.073255 0.207228,0.062183 C 29.373269,3.1019325 28.150983,2.3530256 26.848186,1.7481752 25.911179,1.93328 24.945256,2.157818 23.969128,2.4289509 20.50099,3.3923133 17.689969,3.3956773 15.593608,3.1519198 14.548877,3.0304468 13.689261,2.8484118 13.034319,2.7008875 12.937459,2.6790745 12.847221,2.6585195 12.762647,2.6392545 l -6.49e-4,-1.51e-4 c -0.208266,-0.047432 -0.382324,-0.087094 -0.537485,-0.1187051 -0.22877,-0.046598 -0.331675,-0.056962 -0.36645,-0.056962 h -0.0066 -0.0069 -0.0072 -0.0074 -0.0077 -0.0079 -0.0082 -0.0083 -0.0086 -0.0088 -0.0091 -0.0093 -0.0096 -0.0098 -0.01006 -0.01038 -0.01054 -0.01085 -0.01101 -0.01132 -0.01148 -0.01179 -0.01195 -0.01227 -0.01242 -0.01274 -0.0129 -0.01321 -0.01337 -0.01368 -0.01384 -0.01415 -0.01431 -0.01463 -0.01478 -0.01494 -0.01525 -0.01541 -0.01573 -0.01577 -0.01606 -0.01636 -0.01645 -0.01672 -0.01702 -0.01709 -0.01739 -0.01758 -0.01777 -0.01796 -0.01824 -0.01843 -0.01862 -0.01881 -0.019 -0.01928 -0.01947 -0.01956 -0.01985 -0.02013 -0.02022 -0.02041 -0.0206 -0.02089 -0.02098 -0.02126 -0.02145 -0.02154 -0.02183 -0.02202 -0.02221 -0.0224 -0.02249 -0.02277 -0.02296 -0.02315 -0.02334 -0.02343 -0.02372 -0.02381 -0.02409 -0.02419 -0.02438 -0.02466 -0.02475 -0.02494 -0.02504 -0.02532 -0.02541 -0.0257 -0.02579 -0.02598 -0.02617 -0.02626 -0.02655 -0.02664 -0.02683 -0.02692 -0.02722 -0.0273 -0.02751 -0.02758 -0.02779 -0.02798 -0.02817 -0.02826 -0.02845 -0.02864 -0.02883 -0.02892 -0.02902 -0.0292 -0.02939 -0.02958 -0.02968 -0.02977 -0.03005 -0.03005 z M 35.927974,27.105084 c 0.362195,-0.750192 0.676203,-1.527976 0.93814,-2.329289 l -2.845796,0.94863 -0.734883,0.24493 -0.384403,-0.672517 -1.210193,-2.117905 h -7.604066 -3.137405 l -5.748006,2.514781 -0.267514,0.11699 -0.286886,-0.05424 -13.623924,-2.577526 h -0.53639 c 0.632708,2.732685 1.858103,5.238396 3.533472,7.374256 h 0.0129 0.01494 0.0151 0.0151 0.0151 0.0151 0.01526 0.01525 0.01526 0.01541 0.01541 0.01541 0.01541 0.01557 0.01557 0.01557 0.01557 0.01573 0.01573 0.01577 0.01581 0.01585 0.0159 0.01593 0.01598 0.01601 0.01606 0.01609 0.01614 0.01617 0.0162 0.01626 0.01628 0.01632 0.01636 0.0164 0.01643 0.01648 0.01651 0.01655 0.01659 0.01662 0.01665 0.01669 0.01673 0.01676 0.0168 0.01683 0.01687 0.01691 0.01694 0.01697 0.017 0.01703 0.01708 0.01711 0.01713 0.01717 0.01721 0.01722 0.01727 0.0173 0.01733 0.01736 0.01739 0.01741 0.01744 0.01749 0.0175 0.01754 0.01757 0.0176 0.01763 0.01765 0.01768 0.01771 0.01774 0.01777 0.01779 0.01782 0.01783 0.01788 0.0179 0.01793 0.01794 0.01798 0.01801 0.01802 0.01805 0.01807 0.0181 0.01812 0.01815 0.01818 0.0182 0.01821 0.01824 0.01826 0.01829 0.01832 0.01834 0.01835 0.01837 0.0184 0.01842 0.01843 0.01845 0.01848 0.0185 0.01851 0.01854 0.01856 0.01857 0.01861 0.01862 0.01862 0.01865 0.01867 0.01868 0.0187 0.01872 0.01873 0.01876 0.01876 0.01878 0.01879 0.01881 0.01882 0.01886 0.01886 0.01887 0.0189 0.0189 0.01892 0.01893 0.01895 0.01895 0.01897 0.01898 0.019 0.01901 0.01903 0.01903 0.01905 0.01904 0.01906 0.01908 0.01909 0.01911 0.01911 0.01912 0.01914 0.01914 0.01914 0.01915 0.01917 0.01917 0.01919 0.01919 0.01919 0.01922 0.01922 0.01922 0.01923 0.01923 0.01923 0.01923 0.01927 0.01925 0.01927 0.01926 0.01926 0.01928 0.01928 0.01928 0.01928 0.0193 0.0193 0.0193 0.01931 0.0193 0.0193 0.01931 0.01931 0.01931 0.01931 0.01931 0.01931 0.01931 0.01933 0.01931 0.01931 0.01931 0.01931 0.01931 0.01931 0.01931 0.01931 0.01931 0.01931 0.01931 0.01931 0.0193 0.0193 0.0193 0.01928 0.01928 0.01928 0.01928 0.01928 0.01926 0.01927 0.01927 0.01925 0.01925 0.01925 0.01923 0.01923 0.01923 0.01922 0.01922 0.0192 0.0192 H 8.06354 8.08273 8.1019 8.12105 8.1402 8.15934 8.17848 8.1976 8.21672 8.23583 8.25492 8.27401 8.29309 8.31215 8.3312 8.35025 8.36928 8.38829 8.4073 8.4263 8.44527 8.46424 8.48319 8.50214 8.52106 8.53998 8.55888 8.57777 8.59664 8.6155 8.63432 8.65314 8.67195 8.69074 8.70952 8.72828 8.74703 8.76576 8.78448 8.80316 8.82184 8.84049 8.85913 8.87775 8.89636 8.91495 8.93352 8.95206 8.97059 8.9891 9.00759 9.02605 9.0445 9.06293 9.08133 9.09971 9.11806 9.1364 9.15472 9.17303 9.19131 9.20957 9.2278 9.24601 9.26421 9.28237 9.3005 9.31862 9.33671 9.35478 9.37282 9.39084 9.40883 9.42679 9.44473 9.46267 9.48053 9.4984 9.51627 9.53404 9.55181 9.56958 9.58735 9.60503 9.62271 9.64037 9.65795 9.67553 9.69311 9.7106 h 0.01758 0.01739 0.01749 0.01739 0.01739 0.01739 0.0173 0.0173 0.01719 0.01721 0.01721 0.0172 0.01711 0.01709 0.01702 0.01711 0.01691 0.01702 0.01692 0.01691 0.01683 0.01681 0.01683 0.01672 0.01673 0.01664 0.01664 0.01664 0.01654 0.01654 0.01655 0.01645 0.01645 0.01634 0.01636 0.01636 0.01625 0.01625 0.01617 0.01615 0.01617 0.01606 0.01607 0.01596 0.01596 0.01587 0.01587 0.01587 0.01577 0.01573 0.01577 0.01573 0.01557 0.01557 0.01557 0.01557 0.01557 0.01541 0.01541 0.01525 0.01525 0.01525 0.0151 0.01525 0.0151 0.0151 0.0151 0.01494 0.01494 0.01478 0.01478 0.01478 0.01478 0.01463 0.01463 0.01463 0.01463 0.01463 0.01431 0.01447 0.01431 0.01431 0.01431 0.01415 0.01415 0.01415 0.01415 0.014 0.01384 0.01384 0.01384 0.01384 0.01368 0.01368 0.01368 0.01352 0.01353 0.01352 0.01337 0.01337 0.01337 0.01321 0.01321 0.01321 0.01321 0.01305 0.0129 0.0129 0.0129 0.0129 0.01274 0.01274 0.01274 0.01258 0.01258 0.01242 0.01242 0.01242 0.01242 0.01227 0.01227 0.01227 0.01195 0.01211 0.01195 0.01195 0.01179 0.0118 0.01164 0.01164 0.01164 0.01148 0.01148 0.01148 0.01132 0.01132 0.01117 0.01132 0.01101 0.01101 0.01101 0.01085 0.01085 0.0107 0.01085 0.01054 0.01054 0.01054 0.01038 c 0.801313,0 3.063322,-0.293407 5.668441,-0.68433 2.56373,-0.384688 5.354532,-0.846765 7.140855,-1.154723 l 0.01337,-0.0024 0.01352,-0.0019 z m -1.169558,2.076139 -9.783394,1.397668 c -1.79634,0.309564 -4.593567,0.772587 -7.16807,1.158974 -2.539633,0.381098 -4.971449,0.705214 -5.9489,0.705214 h -0.01038 -0.01054 -0.01054 -0.01054 -0.01085 -0.01069 -0.01085 -0.01085 -0.01101 -0.01101 -0.01101 -0.01132 -0.01117 -0.01132 -0.01132 -0.01148 -0.01148 -0.01148 -0.01164 -0.01164 -0.01164 -0.01179 -0.0118 -0.01195 -0.01195 -0.01211 -0.01195 -0.01227 -0.01227 -0.01227 -0.01242 -0.01242 -0.01242 -0.01242 -0.01258 -0.01258 -0.01274 -0.01274 -0.01274 -0.0129 -0.0129 -0.0129 -0.01289 -0.01305 -0.01321 -0.01321 -0.01321 -0.01321 -0.01337 -0.01337 -0.01337 -0.01352 -0.01352 -0.01352 -0.01368 -0.01368 -0.01368 -0.01384 -0.01384 -0.01384 -0.01384 -0.014 -0.01415 -0.01415 -0.01415 -0.01415 -0.01431 -0.01431 -0.01431 -0.01447 -0.01431 -0.01463 -0.01463 -0.01463 -0.01463 -0.01463 -0.01478 -0.01478 -0.01478 -0.01478 -0.01494 -0.01494 -0.0151 -0.0151 -0.0151 -0.01525 -0.0151 -0.01525 -0.01525 -0.01525 -0.01541 -0.01541 -0.01557 -0.01557 -0.01557 -0.01557 -0.01557 -0.01573 -0.01577 -0.01573 -0.01577 -0.01587 -0.01587 -0.01587 -0.01596 -0.01596 -0.01607 -0.01606 -0.01617 -0.01615 -0.01617 -0.01625 -0.01625 -0.01636 -0.01634 -0.01635 -0.01645 -0.01645 -0.01654 -0.01655 -0.01654 -0.01662 -0.01664 -0.01664 -0.01673 -0.01672 -0.01681 -0.01681 -0.01683 -0.01691 -0.01692 -0.01702 -0.01691 -0.01711 -0.01702 -0.01709 -0.01711 -0.01721 -0.01721 -0.0172 -0.01719 -0.0173 -0.0173 -0.01739 -0.01739 -0.01739 -0.01749 -0.01739 -0.01758 -0.01749 -0.01758 -0.01758 -0.01758 -0.01766 -0.01768 -0.01768 -0.01777 -0.01777 -0.01777 -0.01777 -0.01787 -0.01787 -0.01787 -0.01794 -0.01794 -0.01796 -0.01799 -0.01802 -0.01804 -0.01807 -0.01809 -0.01812 -0.01813 -0.01816 -0.0182 -0.01821 -0.01823 -0.01826 -0.01827 -0.01831 -0.01832 -0.01834 -0.01835 -0.01839 -0.0184 -0.01843 -0.01845 -0.01846 -0.01849 -0.01851 -0.01853 -0.01854 -0.01857 -0.01859 -0.0186 -0.01862 -0.01864 -0.01865 -0.01868 -0.01868 -0.01872 -0.01873 -0.01875 -0.01876 -0.01878 -0.01879 -0.01881 -0.01882 -0.01883 -0.01886 -0.01887 -0.01887 -0.0189 -0.01892 -0.01892 -0.01895 -0.01895 -0.01897 -0.01897 -0.019 -0.01901 -0.01901 -0.01903 -0.01904 -0.01905 -0.01906 -0.01908 -0.01909 -0.01909 -0.01911 -0.01912 -0.01912 -0.01914 -0.01914 -0.01916 -0.01915 -0.01917 -0.01919 -0.01919 -0.0192 -0.0192 -0.01922 -0.01922 -0.01923 -0.01923 -0.01923 -0.01925 -0.01925 -0.01925 -0.01927 -0.01927 -0.01926 -0.01928 -0.01928 -0.01928 -0.01928 -0.01928 -0.0193 -0.01934 -0.0193 -0.01931 -0.01931 -0.01931 -0.01931 -0.01931 -0.01931 -0.01931 -0.01931 -0.01931 -0.01931 -0.01931 -0.01931 -0.01933 -0.01931 -0.01931 -0.01931 -0.01931 -0.01931 -0.01931 -0.01931 -0.0193 -0.0193 -0.01931 -0.0193 -0.0193 -0.0193 -0.01928 -0.01928 -0.01928 -0.01928 -0.01926 -0.01927 -0.01926 -0.01925 -0.01926 -0.01923 -0.01923 -0.01923 -0.01923 -0.01922 -0.01922 -0.01922 -0.01919 -0.01919 -0.01919 -0.01917 -0.01917 -0.01915 -0.01914 -0.01914 -0.01914 -0.01912 -0.01911 -0.01911 -0.01909 -0.01908 -0.01906 -0.01904 -0.01904 -0.01903 -0.01903 -0.01901 -0.019 -0.01898 -0.01897 -0.01895 -0.01895 -0.01893 -0.01892 -0.0189 -0.0189 -0.01887 -0.01886 -0.01886 -0.01882 -0.01881 -0.01879 -0.01878 -0.01876 -0.01876 -0.01873 -0.01872 -0.0187 -0.01868 -0.01867 -0.01865 -0.01862 -0.01862 -0.01861 -0.01857 -0.01856 -0.01854 -0.01851 -0.0185 -0.01848 -0.01845 -0.01843 -0.01842 -0.0184 -0.01837 -0.01805 c 1.833778,1.784812 4.028706,3.200433 6.464869,4.126762 3.62651,-0.460377 7.950578,-1.374233 10.200682,-1.914269 l 0.108671,-0.02607 h 0.11188 0.01956 0.01966 0.01975 0.01985 0.01994 0.02004 0.02013 0.02022 0.02022 0.02041 0.02041 0.02051 0.0206 0.0207 0.02079 0.02088 0.02098 0.02098 0.02117 0.02117 0.02126 0.02136 0.02136 0.02155 0.02155 0.02173 0.02173 0.02183 0.02183 0.02202 0.02202 0.02211 0.02221 0.0223 0.0223 0.02239 0.02258 0.02249 0.02268 0.02268 0.02277 0.02287 0.02296 0.02296 0.02306 0.02315 0.02324 0.02324 0.02334 0.02343 0.02353 0.02353 0.02362 0.02372 0.02372 0.02381 0.0239 0.0239 0.024 0.02409 0.02419 0.02419 0.02428 0.02428 0.02447 0.02438 0.02457 0.02456 0.02466 0.02466 0.02475 0.02485 0.02485 0.02494 0.02504 0.02504 0.02513 0.02513 0.02523 0.02532 0.02532 0.02541 0.02541 0.02551 0.0256 0.0256 0.0257 0.0257 0.02579 0.02579 0.02589 0.02589 0.02598 0.02607 0.02607 0.02617 0.02617 0.02617 0.02628 0.02636 0.02636 0.02645 0.02645 0.02655 0.02655 0.02664 0.02664 0.02673 0.02674 0.02673 0.02683 0.02692 0.02692 0.02692 0.02702 0.02702 0.02713 0.02711 0.02722 0.02721 0.0273 0.02722 0.0274 0.0274 0.02741 0.02741 0.02749 0.02759 0.02751 0.02758 0.0277 0.02768 0.02769 0.02779 0.02777 0.02777 0.02788 0.02787 0.02787 0.02798 0.02796 0.02798 0.02807 0.02806 0.02817 0.02807 0.02815 0.02826 0.02815 0.02826 0.02826 0.02836 0.02836 0.02834 0.02835 0.02845 0.02843 0.02845 0.02854 0.02845 0.02854 0.02854 0.02864 0.02864 0.02864 0.02864 0.02862 0.02873 0.02872 0.02873 0.02873 0.02883 0.02873 0.02883 0.02883 0.02892 0.02883 0.02892 0.02892 0.02892 0.02892 0.02892 0.02902 0.02892 0.02902 0.02902 0.02902 0.02911 0.02902 0.02902 0.02911 0.02911 0.02911 0.02911 0.02911 0.02911 0.02911 0.02921 0.02911 0.0292 0.02921 0.02911 0.0292 0.02921 0.0292 0.0292 0.0292 0.0293 0.0292 0.0292 0.0292 0.0293 0.02921 0.0292 0.0293 0.02921 0.0293 0.0292 0.0293 0.0292 0.0293 0.02921 0.0293 0.02921 0.0293 0.0292 0.0293 0.02919 0.0292 0.0293 0.02921 0.0292 0.0292 0.02921 0.02919 0.0292 0.02921 0.0292 0.02921 0.0292 0.02911 0.02921 0.02911 0.0292 0.02911 0.02911 0.02911 0.02911 0.02911 0.02902 0.02911 0.02902 0.02902 0.02911 0.02902 0.02892 5.42e-4 c 2.142945,-1.430268 3.977084,-3.286707 5.381367,-5.448269 z m -15.85958,8.616574 c -0.623662,0 -1.24024,-0.03024 -1.8485,-0.0892 2.244432,-0.414548 4.321327,-0.868878 5.665605,-1.189214 h 0.0074 0.02013 0.02022 0.02022 0.02041 0.02041 0.02051 0.0206 0.0207 0.02079 0.02088 0.02098 0.02098 0.02117 0.02117 0.02126 0.02136 0.02136 0.02155 0.02155 0.02173 0.02173 0.02183 0.02183 0.02202 0.02202 0.02211 0.02221 0.0223 0.0223 0.02239 0.02258 0.02249 0.02268 0.02268 0.02277 0.02287 0.02296 0.02296 0.02306 0.02315 0.02325 0.02324 0.02334 0.02343 0.02353 0.02353 0.02362 0.02371 0.02372 0.02381 0.02391 0.0239 0.024 0.02409 0.02419 0.02419 0.02428 0.02428 0.02447 0.02438 0.02457 0.02457 0.02466 0.02466 0.02475 0.02485 0.02485 0.02494 0.02504 0.02504 0.02513 0.02513 0.02522 0.02532 0.02532 0.02541 0.02541 0.02551 0.0256 0.0256 0.0257 0.0257 0.02579 0.02579 0.02589 0.02589 0.02598 0.02608 0.02607 0.02617 0.02617 0.02617 0.02628 0.02636 0.02636 0.02645 0.02645 0.02655 0.02655 0.02664 0.02664 0.02674 0.02674 0.02674 0.02683 0.02692 0.02694 0.02692 0.02702 0.02702 0.02713 0.02711 0.02721 0.02721 0.0273 0.02721 0.0274 0.02741 0.0274 0.02741 0.02751 0.02758 0.02749 0.02758 0.0022 c -2.122914,0.825504 -4.431981,1.278415 -6.846882,1.278415 z M 34.15762,23.686556 37.436767,22.593444 c 0.236803,-1.194787 0.36097,-2.430209 0.36097,-3.694546 0,-0.287452 -0.0064,-0.573392 -0.01908,-0.857726 L 27.146888,15.448054 13.734812,21.610418 13.433185,21.748955 13.111148,21.668455 0.0066,18.392331 C 0.0022,18.560625 0,18.729487 0,18.898916 c 0,0.809629 0.05091,1.607352 0.149702,2.390143 H 1.1117 1.2003 l 0.08706,0.01645 13.424115,2.539728 5.661544,-2.476889 0.181052,-0.07928 h 0.197683 3.335088 8.152418 0.548448 l 0.272048,0.476157 z M 0.153171,16.480879 c 0.04569,-0.357757 0.101374,-0.712394 0.166788,-1.063537 l 8.453433,1.083759 0.05984,0.0077 h 0.06033 8.15244 0.143254 l 0.136822,-0.04243 9.484224,-2.94341 -0.153555,0.07049 -13.409241,6.16104 z m 1.78291,-5.924239 c -0.473417,0.960821 -0.8676,1.96766 -1.17403,3.012013 l 8.191825,1.050212 h 7.948859 l 10.609652,-3.292661 0.05217,-0.01617 0.05377,-0.01007 5.929059,-1.111728 0.164419,-0.03081 0.165083,0.02749 1.96265,0.32714 C 35.184024,9.1905525 34.378461,7.9566799 33.445138,6.8327243 l -3.45661,-1.0369917 -9.016287,2.1639149 -0.02136,0.00503 -0.02145,0.00409 L 3.512763,11.30383 3.123247,11.37848 2.797175,11.152733 Z m 35.648097,5.491832 c -0.181334,-1.198947 -0.475401,-2.360945 -0.870956,-3.474847 l -2.982057,-0.49704 -5.71087,1.070812 -1.025547,0.318258 0.280459,0.06841 z"
           fill="#8e7561"
           id="path17"
           style="fill:#8c5425;fill-opacity:1;stroke-width:0.834657" />
      </g>
      <path
         style="font-weight:bold;font-size:9.83084px;line-height:1.2;font-family:'Uncut Sans';-inkscape-font-specification:'Uncut Sans Bold';letter-spacing:-0.49px;word-spacing:0.00921638px;text-orientation:sideways;fill:url(#linearGradient18);stroke-width:1.43397;stroke-linecap:round;paint-order:markers fill stroke"
         d="m 122.3917,31.863995 c 2.03498,0 3.46046,-1.484457 3.46046,-3.598088 0,-2.11363 -1.42548,-3.598087 -3.46046,-3.598087 -2.03498,0 -3.46046,1.484457 -3.46046,3.598087 0,2.113631 1.42548,3.598088 3.46046,3.598088 z m 0,-1.110885 c -1.24852,0 -2.1038,-1.002746 -2.1038,-2.487203 0,-1.484457 0.85528,-2.487202 2.1038,-2.487202 1.24852,0 2.1038,1.002745 2.1038,2.487202 0,1.484457 -0.85528,2.487203 -2.1038,2.487203 z m 5.48715,1.110885 c 0.75697,0 1.32716,-0.363741 1.61226,-0.973253 v 0.815959 h 1.32716 v -3.204854 c 0,-1.140377 -0.87494,-1.867859 -2.2316,-1.867859 -1.33699,0 -2.26109,0.697989 -2.26109,1.710566 l 1.31733,0.09831 c 0,-0.412895 0.42273,-0.697989 1.07156,-0.697989 0.47188,0 0.73731,0.167124 0.75698,0.481711 0.0197,0.35391 -0.14747,0.432557 -1.16987,0.560358 -1.40581,0.167124 -2.11364,0.688159 -2.11364,1.582765 0,0.874945 0.69799,1.494288 1.69091,1.494288 z m 0.35391,-1.110885 c -0.40306,0 -0.68816,-0.186786 -0.68816,-0.511204 0,-0.324418 0.2556,-0.521034 0.84545,-0.599681 0.49154,-0.05898 0.89461,-0.226109 1.10106,-0.47188 -0.0492,0.963422 -0.52104,1.582765 -1.25835,1.582765 z m 3.17691,0.953591 h 1.32716 v -1.543442 l 0.67833,-0.639004 1.32717,2.182446 h 1.57293 l -1.93668,-3.077053 1.95634,-1.838367 h -1.74989 l -1.8482,1.681074 v -3.647242 h -1.32716 z m 7.31569,0.157294 c 1.32716,0 2.29058,-0.786467 2.41838,-1.956337 l -1.4353,-0.09831 c -0.11797,0.589851 -0.49154,0.943761 -1.02241,0.943761 -0.6685,0 -1.08139,-0.570189 -1.08139,-1.484457 0,-0.93393 0.42273,-1.52378 1.08139,-1.52378 0.52104,0 0.89461,0.373572 1.02241,1.002745 l 1.4353,-0.09831 c -0.13763,-1.209193 -1.12071,-2.015322 -2.43805,-2.015322 -1.51395,0 -2.55601,1.071561 -2.55601,2.624834 0,1.553273 1.04206,2.605173 2.57568,2.605173 z m 4.36643,0 c 0.75698,0 1.32716,-0.363741 1.61226,-0.973253 v 0.815959 h 1.32716 v -3.204854 c 0,-1.140377 -0.87494,-1.867859 -2.2316,-1.867859 -1.33699,0 -2.26109,0.697989 -2.26109,1.710566 l 1.31733,0.09831 c 0,-0.412895 0.42273,-0.697989 1.07156,-0.697989 0.47188,0 0.73731,0.167124 0.75698,0.481711 0.0197,0.35391 -0.14747,0.432557 -1.16987,0.560358 -1.40581,0.167124 -2.11363,0.688159 -2.11363,1.582765 0,0.874945 0.69799,1.494288 1.6909,1.494288 z m 0.35391,-1.110885 c -0.40306,0 -0.68816,-0.186786 -0.68816,-0.511204 0,-0.324418 0.2556,-0.521034 0.84545,-0.599681 0.49155,-0.05898 0.89461,-0.226109 1.10106,-0.47188 -0.0492,0.963422 -0.52104,1.582765 -1.25835,1.582765 z m 6.35228,-1.926845 v 2.880436 h 1.32717 V 28.76728 c 0,-1.356656 -0.58986,-2.133292 -1.63192,-2.133292 -0.71766,0 -1.28784,0.373572 -1.5926,0.992915 v -0.835622 h -1.32716 v 4.91542 h 1.32716 v -2.388894 c 0,-0.943761 0.43256,-1.572934 1.09122,-1.572934 0.51121,0 0.80613,0.393233 0.80613,1.081392 z"
         id="text17"
         aria-label="Oakcan" />
    </g>
  </g>
</svg>
