<?xml version="1.0" encoding="UTF-8" standalone="no"?>
<svg
   width="17.657364"
   height="17.657366"
   viewBox="0 0 17.657364 17.657366"
   fill="none"
   version="1.1"
   id="svg1"
   xmlns="http://www.w3.org/2000/svg"
   xmlns:svg="http://www.w3.org/2000/svg">
  <defs
     id="defs1">
    <clipPath
       clipPathUnits="userSpaceOnUse"
       id="clipPath7">
      <path
         style="fill:#808080;stroke:none;stroke-width:0.20814;stroke-linecap:round;paint-order:markers fill stroke"
         id="path7"
         d="m 11.054326,14.848122 a 8.8286829,8.8286829 0 0 1 11.880893,-3.801198 8.8286829,8.8286829 0 0 1 3.823032,11.873885 8.8286829,8.8286829 0 0 1 -11.866838,3.844852 8.8286829,8.8286829 0 0 1 -3.86666,-11.859749" />
    </clipPath>
  </defs>
  <g
     id="g6"
     clip-path="url(#clipPath7)"
     transform="translate(-10.070187,-10.070216)">
    <path
       id="path5"
       style="opacity:1;fill:#fff6d5;stroke-width:4.82448;stroke-linejoin:round;paint-order:markers fill stroke"
       d="M 23.404728,0.65624274 C 20.230711,1.5290069 17.688221,1.5266519 15.812931,1.308587 14.886615,1.2008825 14.119741,1.0402036 13.496525,0.90038336 A 18.868641,18.868641 0 0 0 9.6625399,2.496087 h 0.025391 0.029297 0.029297 0.029297 0.029297 0.029297 0.027344 0.029297 0.029297 0.027344 0.029297 0.027344 0.02734 0.02734 0.02734 0.02734 0.02734 0.02734 0.02734 0.02539 0.02734 0.02539 0.02734 0.02539 0.02539 0.02539 0.02539 0.02539 0.02539 0.02539 0.02539 0.02344 0.02539 0.02344 0.02539 0.02344 0.02344 0.02344 0.02344 0.02344 0.02148 0.02344 0.02344 0.02149 0.02148 0.02344 0.02148 0.02148 0.02149 0.02148 0.02149 0.01953 0.02148 0.01953 0.02149 0.01953 0.01953 0.01953 0.01953 0.01953 0.01953 0.01758 0.01953 0.01758 0.01953 0.01758 0.01758 0.01758 0.01758 0.01562 0.01758 0.01758 0.01563 0.01758 0.01563 0.01563 0.01563 0.01563 0.01563 0.01367 0.01563 0.01367 0.01563 0.01367 0.01367 0.01367 0.01367 0.01367 0.01172 0.01367 0.01172 0.01172 0.01172 0.01367 0.0098 0.01172 0.01172 0.0098 0.01172 0.0098 0.0098 0.0098 0.0098 0.0098 0.0098 0.0078 0.0098 0.0078 0.0078 0.0078 0.0078 0.0078 0.0059 0.0078 0.0059 c 0.03477,0 0.138417,0.010043 0.367187,0.056641 0.155161,0.031611 0.328844,0.071709 0.53711,0.1191407 0.08457,0.019265 0.176577,0.040687 0.273437,0.0625 0.654942,0.1475243 1.513863,0.3296989 2.558594,0.4511719 2.096361,0.2437574 4.906862,0.2407061 8.375,-0.7226563 C 24.902759,2.2036579 25.82515,1.988888 26.723403,1.8085874 A 18.868641,18.868641 0 0 0 23.404728,0.65624274 Z M 30.0434,3.8730402 29.795353,3.9316342 20.553165,6.1503842 3.5473055,9.4062433 2.9262117,8.9785089 A 18.868641,18.868641 0 0 0 2.133243,10.27538 l -0.0625,0.123046 A 18.868641,18.868641 0 0 0 1.978946,10.61913 l 0.8183594,0.566406 0.3261719,0.226562 0.390625,-0.07422 17.4160167,-3.3359336 0.02148,-0.00391 0.02148,-0.00586 9.015625,-2.1640625 3.396485,1.0195312 A 18.868641,18.868641 0 0 0 30.400822,3.9785089 L 30.28754,3.9453059 Z m 3.667969,6.3183558 -0.164063,0.0293 -5.927734,1.11328 -0.05469,0.0098 -0.05273,0.01563 -10.609375,3.292969 H 8.9535555 L 0.83636809,13.611317 a 18.868641,18.868641 0 0 0 -0.48046875,1.84375 l 8.41796866,1.080078 0.060547,0.0078 h 0.060547 8.152345 0.142578 l 0.136719,-0.04297 9.484375,-2.943359 -0.154298,0.07033 -13.408203,6.160152 -13.01757866,-3.253906 a 18.868641,18.868641 0 0 0 -0.17578125,1.904297 l 13.05664091,3.263672 0.322266,0.08008 0.300781,-0.136719 13.412109,-6.164062 10.595704,2.583984 a 18.868641,18.868641 0 0 0 -0.197266,-1.992188 l -10.269531,-2.505859 -0.28125,-0.06836 1.02539,-0.31836 5.710938,-1.070312 2.9375,0.490234 a 18.868641,18.868641 0 0 0 -0.871094,-2.0625 L 33.877384,10.21874 Z M 0.21136809,21.322254 a 18.868641,18.868641 0 0 0 0.328125,1.890626 H 1.023868 l 13.623047,2.576171 0.28711,0.05469 0.267578,-0.117188 5.748047,-2.513671 h 3.136719 7.605468 l 1.208985,2.117187 0.384765,0.671875 0.734375,-0.244141 2.800781,-0.933593 a 18.868641,18.868641 0 0 0 0.572266,-2.181641 l -3.234375,1.078123 -1.097656,-1.921875 -0.273438,-0.476563 h -0.546875 -8.154296 -3.333985 -0.197265 l -0.181641,0.08008 -5.662109,2.476562 -13.4238291,-2.541015 -0.085937,-0.01563 h -0.089844 z m 35.66796891,5.824219 -11.183594,1.595703 -0.01367,0.002 -0.01367,0.0039 c -1.786323,0.307958 -4.576895,0.769609 -7.140625,1.154297 -2.605119,0.390923 -4.866656,0.683593 -5.667969,0.683593 h -0.0098 -0.01172 -0.0098 -0.01172 -0.0098 -0.01172 -0.0098 -0.01172 -0.0098 -0.01172 -0.01172 -0.0098 -0.01172 -0.01172 -0.01172 -0.01172 -0.01172 -0.0098 -0.01172 -0.01172 -0.01172 -0.01172 -0.01172 -0.01367 -0.01172 -0.01172 -0.01172 -0.01172 -0.01367 -0.01172 -0.01172 -0.01367 -0.01172 -0.01172 -0.01367 -0.01172 -0.01367 -0.01172 -0.01367 -0.01172 -0.01367 -0.01172 -0.01367 -0.01367 -0.01367 -0.01172 -0.01367 -0.01367 -0.01367 -0.01367 -0.01172 -0.01367 -0.01367 -0.01367 -0.01367 -0.01367 -0.01367 -0.01367 -0.01367 -0.01367 -0.01563 -0.01367 -0.01367 -0.01367 -0.01367 -0.01563 -0.01367 -0.01367 -0.01563 -0.01367 -0.01367 -0.01563 -0.01367 -0.01563 -0.01367 -0.01563 -0.01367 -0.01563 -0.01563 -0.01367 -0.01563 -0.01367 -0.01563 -0.01563 -0.01563 -0.01367 -0.01563 -0.01563 -0.01563 -0.01563 -0.01367 -0.01563 -0.01563 -0.01563 -0.01563 -0.01563 -0.01563 -0.01563 -0.01563 -0.01563 -0.01563 -0.01758 -0.01563 -0.01563 -0.01563 -0.01563 -0.01563 -0.01758 -0.01563 -0.01563 -0.01563 -0.01758 -0.01563 -0.01562 -0.01758 -0.01563 -0.01758 -0.01563 -0.01758 -0.01563 -0.01563 -0.01758 -0.01563 -0.01758 -0.01758 -0.01563 -0.01758 -0.01563 -0.01758 -0.01758 -0.01563 -0.01758 H 9.986759 9.9711336 9.9535555 9.9359774 9.9183993 9.9027743 9.8851961 9.867618 9.8500399 9.8324617 9.8148836 9.7973055 9.7816805 9.7641024 9.7465243 9.7289461 9.711368 9.6937899 9.6762117 9.6586336 9.6410555 9.6234774 9.6058993 9.5883211 9.570743 9.5531649 9.5336336 9.5160555 9.4984774 9.4808993 9.4633211 9.445743 9.4281649 9.4086336 9.3910555 9.3734774 9.3558993 9.336368 9.3187899 9.3012117 9.2836336 9.2641024 9.2465243 9.2289461 9.2094149 9.1918367 9.1742586 9.1547274 9.1371493 9.117618 9.1000399 9.0824617 9.0629305 9.0453524 9.0258211 9.008243 8.9887117 8.9711336 8.9516024 8.9340243 8.914493 8.8969149 8.8773836 8.8598055 8.8402743 8.8226961 8.8031649 8.7855867 8.7660555 8.7465243 8.7289461 8.7094149 8.6918367 8.6723055 8.6527743 8.6351961 8.6156649 8.5961336 8.5785555 8.5590243 8.539493 8.5219149 8.5023836 8.4828524 8.4652743 8.445743 8.4262117 8.4086336 8.3891024 8.3695711 8.3500399 8.3324617 8.3129305 8.2933993 8.273868 8.2562899 8.2367586 8.2172274 8.1976961 8.1781649 8.1605867 8.1410555 8.1215243 8.101993 8.0824617 8.0648836 8.0453524 8.0258211 8.0062899 7.9867586 7.9672274 7.9496493 7.930118 7.9105867 7.8910555 7.8715243 7.851993 7.8324617 7.8148836 7.7953524 7.7758211 7.7562899 7.7367586 7.7172274 7.6976961 7.6781649 7.6605867 7.6410555 7.6215243 7.601993 7.5824617 7.5629305 7.5433993 7.523868 7.5043367 7.4867586 7.4672274 7.4476961 7.4281649 7.4086336 7.3891024 7.3695711 7.3500399 7.3305086 7.3129305 7.2933993 7.273868 7.2543367 7.2348055 7.2152743 7.195743 7.1762117 7.1586336 7.1391024 7.1195711 7.1000399 7.0805086 7.0609774 7.0414461 7.0219149 7.0043367 6.9848055 6.9652743 6.945743 6.9262117 6.9066805 6.8871493 6.8695711 6.8500399 6.8305086 6.8109774 6.7914461 6.7719149 6.7543367 6.7348055 6.7152743 6.695743 6.6762117 6.6586336 6.6391024 6.6195711 6.6000399 6.5805086 6.5629305 6.5433993 6.523868 6.5043367 6.4867586 6.4672274 6.4476961 6.430118 6.4105867 6.3910555 6.3715243 6.3539461 6.3344149 6.3148836 6.2973055 6.2777743 6.258243 6.2406649 6.2211336 6.2016024 6.1840243 6.164493 6.1449617 6.1273836 6.1078524 6.0902743 6.070743 6.0531649 6.0336336 6.0141024 5.9965243 5.976993 5.9594149 5.9398836 5.9223055 5.9027743 5.8851961 5.8656649 5.8480867 5.8285555 5.8109774 5.7914461 5.773868 5.7562899 5.7367586 5.7191805 5.6996493 5.6820711 5.664493 5.6449617 5.6273836 5.6098055 5.5902743 5.5726961 5.555118 5.5355867 5.5180086 5.5004305 5.4828524 5.4633211 5.445743 5.4281649 5.4105867 5.3930086 5.3754305 5.3558993 5.3383211 5.320743 5.3031649 5.2855867 5.2680086 5.2504305 5.2328524 5.2152743 5.1976961 5.180118 5.1625399 5.1449617 5.1273836 5.1098055 5.0922274 5.0746493 5.0570711 5.039493 5.0219149 5.0043367 4.9887117 4.9711336 4.9535555 4.9359774 4.9183993 4.9027743 4.8851961 4.867618 4.8500399 4.8344149 4.8168367 4.7992586 4.7836336 4.7660555 4.7504305 4.7328524 4.7152743 4.6996493 4.6820711 4.6664461 4.648868 4.633243 4.6156649 4.6000399 4.5844149 4.5668367 4.5512117 4.5336336 4.5180086 4.5023836 4.4848055 4.4691805 4.4535555 4.4379305 4.4203524 4.4047274 4.3891024 4.3734774 4.3578524 4.3422274 4.3266024 4.3090243 4.2933993 4.2777743 4.2621493 4.2465243 4.2308993 4.2152743 4.2016024 4.1859774 4.1703524 4.1547274 4.1391024 4.1234774 4.1078524 4.0941805 4.0785555 4.0687899 a 18.868641,18.868641 0 0 0 1.7167968,1.890625 h 0.00586 0.017578 0.019531 0.017578 0.019531 0.017578 0.019531 0.017578 0.019531 0.017578 0.019531 0.017578 0.019531 0.017578 0.019531 0.019531 0.017578 0.019531 0.017578 0.019531 0.019531 0.017578 0.019531 0.017578 0.019531 0.019531 0.017578 0.019531 0.019531 0.017578 0.019531 0.019531 0.019531 0.017578 0.019531 0.019531 0.017578 0.019531 0.019531 0.019531 0.017578 0.019531 0.019531 0.019531 0.019531 0.017578 0.019531 0.019531 0.019531 0.019531 0.017578 0.019531 0.019531 0.019531 0.019531 0.017578 0.019531 0.019531 0.019531 0.019531 0.019531 0.017578 0.019531 0.019531 0.019531 0.019531 0.019531 0.019531 0.019531 0.017578 0.019531 0.019531 0.019531 0.019531 0.019531 0.019531 0.019531 0.017578 0.019531 0.019531 0.019531 0.019531 0.019531 0.019531 0.019531 0.019531 0.017578 0.019531 0.019531 0.019531 0.019531 0.019531 0.019531 0.019531 0.017578 0.019531 0.019531 0.019531 0.019531 0.019531 0.019531 0.019531 0.019531 0.017578 0.019531 0.019531 0.019531 0.019531 0.019531 0.019531 0.017578 0.019531 0.019531 0.019531 0.019531 0.019531 0.019531 0.017578 0.019531 0.019531 0.019531 0.019531 0.017578 0.019531 0.019531 0.019531 0.019531 0.017578 0.019531 0.019531 0.019531 0.019531 0.017578 0.019531 0.019531 0.019531 0.017578 0.019531 0.019531 0.017578 0.019531 0.019531 0.019531 0.017578 0.019531 0.019531 0.017578 0.019531 0.019531 0.017578 0.019531 0.019531 0.017578 0.019531 0.017578 0.019531 0.019531 0.017578 0.019531 0.017578 0.019531 0.017578 0.019531 0.017578 0.019531 0.017578 0.019531 0.017578 0.019531 0.017578 0.019531 0.017578 0.019531 0.017578 0.019531 0.017578 0.017578 0.019531 0.017578 0.017578 0.019531 0.017578 0.017578 0.019531 0.017578 0.017578 0.019531 0.017578 0.017578 0.017578 0.019531 0.017578 0.017578 0.017578 0.017578 0.019531 0.017578 0.017578 0.017578 0.017578 0.017578 0.017578 0.017578 0.017578 0.017578 0.017578 0.017578 0.017578 0.017578 0.017578 0.017578 0.017578 0.017578 0.017578 0.017578 0.017578 0.017578 0.015625 0.017578 0.017578 0.017578 0.017578 0.015625 0.017578 0.017578 0.015625 0.01758 0.01758 0.01758 0.01562 0.01758 0.01563 0.01758 0.01563 0.01758 0.01758 0.01563 0.01758 0.01563 0.01563 0.01758 0.01563 0.01758 0.01563 0.01563 0.01758 0.01562 0.01563 0.01758 0.01563 0.01563 0.01563 0.01563 0.01758 0.01563 0.01563 0.01563 0.01563 0.01563 0.01563 0.01563 0.01563 0.01563 0.01563 0.01563 0.01563 0.01563 0.01563 0.01563 0.01563 0.01367 0.01563 0.01563 0.01563 0.01367 0.01563 0.01562 0.01367 0.01563 0.01563 0.01367 0.01563 0.01367 0.01563 0.01367 0.01563 0.01367 0.01367 0.01563 0.01367 0.01563 0.01367 0.01367 0.01367 0.01563 0.01367 0.01367 0.01367 0.01367 0.01367 0.01367 0.01367 0.01367 0.01367 0.01367 0.01367 0.01367 0.01367 0.01367 0.01367 0.01172 0.01367 0.01367 0.01367 0.01172 0.01367 0.01367 0.01172 0.01367 0.01172 0.01367 0.01172 0.01367 0.01172 0.01367 0.01172 0.01172 0.01367 0.01172 0.01172 0.01367 0.01172 0.01172 0.01172 0.01172 0.01172 0.01172 0.01172 0.01172 0.01172 0.01172 0.01172 0.01172 0.0098 0.01172 0.01172 0.01172 0.0098 0.01172 0.01172 0.0098 0.01172 0.0098 0.01172 0.0098 0.01172 0.0098 0.0098 c 0.977451,0 3.409586,-0.32398 5.949219,-0.705078 2.574503,-0.386387 5.371628,-0.850592 7.167968,-1.160156 l 9.691407,-1.382813 a 18.868641,18.868641 0 0 0 1.029296,-1.701171 18.868641,18.868641 0 0 0 0.183594,-0.38086 z m -13.386718,7.515625 -0.109376,0.02734 c -2.222011,0.533294 -6.464493,1.428847 -10.0625,1.894531 a 18.868641,18.868641 0 0 0 4.976563,1.109375 c 2.144001,-0.401175 4.127819,-0.832722 5.419922,-1.140625 h 0.0059 0.02148 0.01953 0.01953 0.02148 0.01953 0.02148 0.01953 0.02148 0.02148 0.01953 0.02148 0.02148 0.02148 0.01953 0.02148 0.02148 0.02148 0.02148 0.02148 0.02148 0.02148 0.02344 0.02148 0.02148 0.02148 0.02344 0.02148 0.02148 0.02344 0.02148 0.02344 0.02148 0.02344 0.02344 0.02148 0.02344 0.02344 0.02344 0.02148 0.02344 0.02344 0.02344 0.02344 0.02344 0.02344 0.02344 0.02344 0.02344 0.02344 0.02539 0.02344 0.02344 0.02344 0.02539 0.02344 0.02539 0.02344 0.02344 0.02539 0.02344 0.02539 0.02539 0.02344 0.02539 0.02344 0.02539 0.02539 0.02539 0.02344 0.02539 0.02539 0.02539 0.02539 0.02539 0.02539 0.02539 0.02539 0.02539 0.02539 0.02539 0.02539 0.02539 0.02734 0.02539 0.02539 0.02539 0.02734 0.02539 0.02539 0.02734 0.02539 0.02734 0.02539 0.02734 0.02539 0.02734 0.02539 0.02734 0.02539 0.02734 0.02734 0.02539 0.02734 0.02734 0.02539 0.02734 0.02734 0.02734 0.02734 0.02539 0.02734 0.02734 0.02734 0.02734 0.02734 0.02734 0.02734 0.02344 a 18.868641,18.868641 0 0 0 0.0039,0 18.868641,18.868641 0 0 0 3.660156,-1.890625 h -0.0078 -0.0293 -0.02734 -0.0293 -0.0293 -0.0293 -0.0293 -0.0293 -0.0293 -0.0293 -0.0293 -0.0293 -0.0293 -0.0293 -0.0293 -0.0293 -0.02734 -0.0293 -0.0293 -0.0293 -0.0293 -0.0293 -0.0293 -0.0293 -0.0293 -0.0293 -0.0293 -0.0293 -0.0293 -0.0293 -0.0293 -0.0293 -0.0293 -0.0293 -0.0293 -0.0293 -0.0293 -0.0293 -0.0293 -0.0293 -0.0293 -0.0293 -0.0293 -0.0293 -0.0293 -0.0293 -0.0293 -0.02734 -0.0293 -0.0293 -0.0293 -0.0293 -0.0293 -0.0293 -0.0293 -0.0293 -0.0293 -0.0293 -0.0293 -0.0293 -0.02734 -0.0293 -0.0293 -0.0293 -0.0293 -0.0293 -0.0293 -0.0293 -0.02734 -0.0293 -0.0293 -0.0293 -0.0293 -0.02734 -0.0293 -0.0293 -0.0293 -0.0293 -0.02734 -0.0293 -0.0293 -0.0293 -0.02734 -0.0293 -0.0293 -0.02734 -0.0293 -0.0293 -0.02734 -0.0293 -0.0293 -0.02734 -0.0293 -0.02734 -0.0293 -0.0293 -0.02734 -0.0293 -0.02734 -0.0293 -0.02734 -0.0293 -0.02734 -0.02734 -0.0293 -0.02734 -0.0293 -0.02734 -0.0293 -0.02734 -0.02734 -0.0293 -0.02734 -0.02734 -0.02734 -0.0293 -0.02734 -0.02734 -0.02734 -0.0293 -0.02734 -0.02734 -0.02734 -0.02734 -0.02734 -0.02734 -0.02734 -0.02734 -0.02734 -0.02734 -0.02734 -0.02734 -0.02734 -0.02734 -0.02734 -0.02734 -0.02734 -0.02734 -0.02539 -0.02734 -0.02734 -0.02734 -0.02539 -0.02734 -0.02734 -0.02539 -0.02734 -0.02734 -0.02539 -0.02734 -0.02539 -0.02734 -0.02539 -0.02734 -0.02539 -0.02734 -0.02539 -0.02539 -0.02734 -0.02539 -0.02539 -0.02539 -0.02734 -0.02539 -0.02539 -0.02539 -0.02539 -0.02539 -0.02734 -0.02539 -0.02539 -0.02344 -0.02539 -0.02539 -0.02539 -0.02539 -0.02539 -0.02539 -0.02539 -0.02344 -0.02539 -0.02539 -0.02344 -0.02539 -0.02344 -0.02539 -0.02539 -0.02344 -0.02344 -0.02539 -0.02344 -0.02539 -0.02344 -0.02344 -0.02539 -0.02344 -0.02344 -0.02344 -0.02344 -0.02344 -0.02344 -0.02344 -0.02344 -0.02344 -0.02344 -0.02344 -0.02344 -0.02344 -0.02344 -0.02148 -0.02344 -0.02344 -0.02148 -0.02344 -0.02148 -0.02344 -0.02148 -0.02344 -0.02148 -0.02344 -0.02148 -0.02148 -0.02344 -0.02148 -0.02148 -0.02148 -0.02148 -0.02148 -0.02148 -0.02148 -0.02148 -0.02148 -0.02148 -0.02148 -0.01953 -0.02148 -0.02148 -0.01953 -0.02148 -0.02148 -0.01953 -0.02148 -0.01953 -0.01953 -0.02148 -0.01953 -0.01953 -0.02148 -0.01953 -0.01953 -0.01953 -0.01953 z" />
    <path
       fill-rule="evenodd"
       clip-rule="evenodd"
       d="M 23.56403,0.58017702 C 22.071867,0.2013264 20.508833,0 18.898836,0 16.963117,0 15.095339,0.29102444 13.33689,0.83170352 c 0.03741,0.00849 0.07494,0.016985 0.112635,0.025477 0.630467,0.1419806 1.415149,0.30735318 2.362362,0.41748728 1.88715,0.2194439 4.449274,0.2228174 7.651409,-0.66666108 0.03355,-0.00928 0.06718,-0.018605 0.10073,-0.027821 z M 9.562497,2.4634239 C 6.829866,4.0190678 4.523019,6.2365614 2.860086,8.8977528 l 0.686749,0.4754397 17.005656,-3.2563947 9.242792,-2.2182861 0.247952,-0.059494 0.244172,0.073255 0.207228,0.062183 C 29.373269,3.1019325 28.150983,2.3530256 26.848186,1.7481752 25.911179,1.93328 24.945256,2.157818 23.969128,2.4289509 20.50099,3.3923133 17.689969,3.3956773 15.593608,3.1519198 14.548877,3.0304468 13.689261,2.8484118 13.034319,2.7008875 12.937459,2.6790745 12.847221,2.6585195 12.762647,2.6392545 l -6.49e-4,-1.51e-4 c -0.208266,-0.047432 -0.382324,-0.087094 -0.537485,-0.1187051 -0.22877,-0.046598 -0.331675,-0.056962 -0.36645,-0.056962 h -0.0066 -0.0069 -0.0072 -0.0074 -0.0077 -0.0079 -0.0082 -0.0083 -0.0086 -0.0088 -0.0091 -0.0093 -0.0096 -0.0098 -0.01006 -0.01038 -0.01054 -0.01085 -0.01101 -0.01132 -0.01148 -0.01179 -0.01195 -0.01227 -0.01242 -0.01274 -0.0129 -0.01321 -0.01337 -0.01368 -0.01384 -0.01415 -0.01431 -0.01463 -0.01478 -0.01494 -0.01525 -0.01541 -0.01573 -0.01577 -0.01606 -0.01636 -0.01645 -0.01672 -0.01702 -0.01709 -0.01739 -0.01758 -0.01777 -0.01796 -0.01824 -0.01843 -0.01862 -0.01881 -0.019 -0.01928 -0.01947 -0.01956 -0.01985 -0.02013 -0.02022 -0.02041 -0.0206 -0.02089 -0.02098 -0.02126 -0.02145 -0.02154 -0.02183 -0.02202 -0.02221 -0.0224 -0.02249 -0.02277 -0.02296 -0.02315 -0.02334 -0.02343 -0.02372 -0.02381 -0.02409 -0.02419 -0.02438 -0.02466 -0.02475 -0.02494 -0.02504 -0.02532 -0.02541 -0.0257 -0.02579 -0.02598 -0.02617 -0.02626 -0.02655 -0.02664 -0.02683 -0.02692 -0.02722 -0.0273 -0.02751 -0.02758 -0.02779 -0.02798 -0.02817 -0.02826 -0.02845 -0.02864 -0.02883 -0.02892 -0.02902 -0.0292 -0.02939 -0.02958 -0.02968 -0.02977 -0.03005 -0.03005 z M 35.927974,27.105084 c 0.362195,-0.750192 0.676203,-1.527976 0.93814,-2.329289 l -2.845796,0.94863 -0.734883,0.24493 -0.384403,-0.672517 -1.210193,-2.117905 h -7.604066 -3.137405 l -5.748006,2.514781 -0.267514,0.11699 -0.286886,-0.05424 -13.623924,-2.577526 h -0.53639 c 0.632708,2.732685 1.858103,5.238396 3.533472,7.374256 h 0.0129 0.01494 0.0151 0.0151 0.0151 0.0151 0.01526 0.01525 0.01526 0.01541 0.01541 0.01541 0.01541 0.01557 0.01557 0.01557 0.01557 0.01573 0.01573 0.01577 0.01581 0.01585 0.0159 0.01593 0.01598 0.01601 0.01606 0.01609 0.01614 0.01617 0.0162 0.01626 0.01628 0.01632 0.01636 0.0164 0.01643 0.01648 0.01651 0.01655 0.01659 0.01662 0.01665 0.01669 0.01673 0.01676 0.0168 0.01683 0.01687 0.01691 0.01694 0.01697 0.017 0.01703 0.01708 0.01711 0.01713 0.01717 0.01721 0.01722 0.01727 0.0173 0.01733 0.01736 0.01739 0.01741 0.01744 0.01749 0.0175 0.01754 0.01757 0.0176 0.01763 0.01765 0.01768 0.01771 0.01774 0.01777 0.01779 0.01782 0.01783 0.01788 0.0179 0.01793 0.01794 0.01798 0.01801 0.01802 0.01805 0.01807 0.0181 0.01812 0.01815 0.01818 0.0182 0.01821 0.01824 0.01826 0.01829 0.01832 0.01834 0.01835 0.01837 0.0184 0.01842 0.01843 0.01845 0.01848 0.0185 0.01851 0.01854 0.01856 0.01857 0.01861 0.01862 0.01862 0.01865 0.01867 0.01868 0.0187 0.01872 0.01873 0.01876 0.01876 0.01878 0.01879 0.01881 0.01882 0.01886 0.01886 0.01887 0.0189 0.0189 0.01892 0.01893 0.01895 0.01895 0.01897 0.01898 0.019 0.01901 0.01903 0.01903 0.01905 0.01904 0.01906 0.01908 0.01909 0.01911 0.01911 0.01912 0.01914 0.01914 0.01914 0.01915 0.01917 0.01917 0.01919 0.01919 0.01919 0.01922 0.01922 0.01922 0.01923 0.01923 0.01923 0.01923 0.01927 0.01925 0.01927 0.01926 0.01926 0.01928 0.01928 0.01928 0.01928 0.0193 0.0193 0.0193 0.01931 0.0193 0.0193 0.01931 0.01931 0.01931 0.01931 0.01931 0.01931 0.01931 0.01933 0.01931 0.01931 0.01931 0.01931 0.01931 0.01931 0.01931 0.01931 0.01931 0.01931 0.01931 0.01931 0.0193 0.0193 0.0193 0.01928 0.01928 0.01928 0.01928 0.01928 0.01926 0.01927 0.01927 0.01925 0.01925 0.01925 0.01923 0.01923 0.01923 0.01922 0.01922 0.0192 0.0192 H 8.06354 8.08273 8.1019 8.12105 8.1402 8.15934 8.17848 8.1976 8.21672 8.23583 8.25492 8.27401 8.29309 8.31215 8.3312 8.35025 8.36928 8.38829 8.4073 8.4263 8.44527 8.46424 8.48319 8.50214 8.52106 8.53998 8.55888 8.57777 8.59664 8.6155 8.63432 8.65314 8.67195 8.69074 8.70952 8.72828 8.74703 8.76576 8.78448 8.80316 8.82184 8.84049 8.85913 8.87775 8.89636 8.91495 8.93352 8.95206 8.97059 8.9891 9.00759 9.02605 9.0445 9.06293 9.08133 9.09971 9.11806 9.1364 9.15472 9.17303 9.19131 9.20957 9.2278 9.24601 9.26421 9.28237 9.3005 9.31862 9.33671 9.35478 9.37282 9.39084 9.40883 9.42679 9.44473 9.46267 9.48053 9.4984 9.51627 9.53404 9.55181 9.56958 9.58735 9.60503 9.62271 9.64037 9.65795 9.67553 9.69311 9.7106 h 0.01758 0.01739 0.01749 0.01739 0.01739 0.01739 0.0173 0.0173 0.01719 0.01721 0.01721 0.0172 0.01711 0.01709 0.01702 0.01711 0.01691 0.01702 0.01692 0.01691 0.01683 0.01681 0.01683 0.01672 0.01673 0.01664 0.01664 0.01664 0.01654 0.01654 0.01655 0.01645 0.01645 0.01634 0.01636 0.01636 0.01625 0.01625 0.01617 0.01615 0.01617 0.01606 0.01607 0.01596 0.01596 0.01587 0.01587 0.01587 0.01577 0.01573 0.01577 0.01573 0.01557 0.01557 0.01557 0.01557 0.01557 0.01541 0.01541 0.01525 0.01525 0.01525 0.0151 0.01525 0.0151 0.0151 0.0151 0.01494 0.01494 0.01478 0.01478 0.01478 0.01478 0.01463 0.01463 0.01463 0.01463 0.01463 0.01431 0.01447 0.01431 0.01431 0.01431 0.01415 0.01415 0.01415 0.01415 0.014 0.01384 0.01384 0.01384 0.01384 0.01368 0.01368 0.01368 0.01352 0.01353 0.01352 0.01337 0.01337 0.01337 0.01321 0.01321 0.01321 0.01321 0.01305 0.0129 0.0129 0.0129 0.0129 0.01274 0.01274 0.01274 0.01258 0.01258 0.01242 0.01242 0.01242 0.01242 0.01227 0.01227 0.01227 0.01195 0.01211 0.01195 0.01195 0.01179 0.0118 0.01164 0.01164 0.01164 0.01148 0.01148 0.01148 0.01132 0.01132 0.01117 0.01132 0.01101 0.01101 0.01101 0.01085 0.01085 0.0107 0.01085 0.01054 0.01054 0.01054 0.01038 c 0.801313,0 3.063322,-0.293407 5.668441,-0.68433 2.56373,-0.384688 5.354532,-0.846765 7.140855,-1.154723 l 0.01337,-0.0024 0.01352,-0.0019 z m -1.169558,2.076139 -9.783394,1.397668 c -1.79634,0.309564 -4.593567,0.772587 -7.16807,1.158974 -2.539633,0.381098 -4.971449,0.705214 -5.9489,0.705214 h -0.01038 -0.01054 -0.01054 -0.01054 -0.01085 -0.01069 -0.01085 -0.01085 -0.01101 -0.01101 -0.01101 -0.01132 -0.01117 -0.01132 -0.01132 -0.01148 -0.01148 -0.01148 -0.01164 -0.01164 -0.01164 -0.01179 -0.0118 -0.01195 -0.01195 -0.01211 -0.01195 -0.01227 -0.01227 -0.01227 -0.01242 -0.01242 -0.01242 -0.01242 -0.01258 -0.01258 -0.01274 -0.01274 -0.01274 -0.0129 -0.0129 -0.0129 -0.01289 -0.01305 -0.01321 -0.01321 -0.01321 -0.01321 -0.01337 -0.01337 -0.01337 -0.01352 -0.01352 -0.01352 -0.01368 -0.01368 -0.01368 -0.01384 -0.01384 -0.01384 -0.01384 -0.014 -0.01415 -0.01415 -0.01415 -0.01415 -0.01431 -0.01431 -0.01431 -0.01447 -0.01431 -0.01463 -0.01463 -0.01463 -0.01463 -0.01463 -0.01478 -0.01478 -0.01478 -0.01478 -0.01494 -0.01494 -0.0151 -0.0151 -0.0151 -0.01525 -0.0151 -0.01525 -0.01525 -0.01525 -0.01541 -0.01541 -0.01557 -0.01557 -0.01557 -0.01557 -0.01557 -0.01573 -0.01577 -0.01573 -0.01577 -0.01587 -0.01587 -0.01587 -0.01596 -0.01596 -0.01607 -0.01606 -0.01617 -0.01615 -0.01617 -0.01625 -0.01625 -0.01636 -0.01634 -0.01635 -0.01645 -0.01645 -0.01654 -0.01655 -0.01654 -0.01662 -0.01664 -0.01664 -0.01673 -0.01672 -0.01681 -0.01681 -0.01683 -0.01691 -0.01692 -0.01702 -0.01691 -0.01711 -0.01702 -0.01709 -0.01711 -0.01721 -0.01721 -0.0172 -0.01719 -0.0173 -0.0173 -0.01739 -0.01739 -0.01739 -0.01749 -0.01739 -0.01758 -0.01749 -0.01758 -0.01758 -0.01758 -0.01766 -0.01768 -0.01768 -0.01777 -0.01777 -0.01777 -0.01777 -0.01787 -0.01787 -0.01787 -0.01794 -0.01794 -0.01796 -0.01799 -0.01802 -0.01804 -0.01807 -0.01809 -0.01812 -0.01813 -0.01816 -0.0182 -0.01821 -0.01823 -0.01826 -0.01827 -0.01831 -0.01832 -0.01834 -0.01835 -0.01839 -0.0184 -0.01843 -0.01845 -0.01846 -0.01849 -0.01851 -0.01853 -0.01854 -0.01857 -0.01859 -0.0186 -0.01862 -0.01864 -0.01865 -0.01868 -0.01868 -0.01872 -0.01873 -0.01875 -0.01876 -0.01878 -0.01879 -0.01881 -0.01882 -0.01883 -0.01886 -0.01887 -0.01887 -0.0189 -0.01892 -0.01892 -0.01895 -0.01895 -0.01897 -0.01897 -0.019 -0.01901 -0.01901 -0.01903 -0.01904 -0.01905 -0.01906 -0.01908 -0.01909 -0.01909 -0.01911 -0.01912 -0.01912 -0.01914 -0.01914 -0.01916 -0.01915 -0.01917 -0.01919 -0.01919 -0.0192 -0.0192 -0.01922 -0.01922 -0.01923 -0.01923 -0.01923 -0.01925 -0.01925 -0.01925 -0.01927 -0.01927 -0.01926 -0.01928 -0.01928 -0.01928 -0.01928 -0.01928 -0.0193 -0.01934 -0.0193 -0.01931 -0.01931 -0.01931 -0.01931 -0.01931 -0.01931 -0.01931 -0.01931 -0.01931 -0.01931 -0.01931 -0.01931 -0.01933 -0.01931 -0.01931 -0.01931 -0.01931 -0.01931 -0.01931 -0.01931 -0.0193 -0.0193 -0.01931 -0.0193 -0.0193 -0.0193 -0.01928 -0.01928 -0.01928 -0.01928 -0.01926 -0.01927 -0.01926 -0.01925 -0.01926 -0.01923 -0.01923 -0.01923 -0.01923 -0.01922 -0.01922 -0.01922 -0.01919 -0.01919 -0.01919 -0.01917 -0.01917 -0.01915 -0.01914 -0.01914 -0.01914 -0.01912 -0.01911 -0.01911 -0.01909 -0.01908 -0.01906 -0.01904 -0.01904 -0.01903 -0.01903 -0.01901 -0.019 -0.01898 -0.01897 -0.01895 -0.01895 -0.01893 -0.01892 -0.0189 -0.0189 -0.01887 -0.01886 -0.01886 -0.01882 -0.01881 -0.01879 -0.01878 -0.01876 -0.01876 -0.01873 -0.01872 -0.0187 -0.01868 -0.01867 -0.01865 -0.01862 -0.01862 -0.01861 -0.01857 -0.01856 -0.01854 -0.01851 -0.0185 -0.01848 -0.01845 -0.01843 -0.01842 -0.0184 -0.01837 -0.01805 c 1.833778,1.784812 4.028706,3.200433 6.464869,4.126762 3.62651,-0.460377 7.950578,-1.374233 10.200682,-1.914269 l 0.108671,-0.02607 h 0.11188 0.01956 0.01966 0.01975 0.01985 0.01994 0.02004 0.02013 0.02022 0.02022 0.02041 0.02041 0.02051 0.0206 0.0207 0.02079 0.02088 0.02098 0.02098 0.02117 0.02117 0.02126 0.02136 0.02136 0.02155 0.02155 0.02173 0.02173 0.02183 0.02183 0.02202 0.02202 0.02211 0.02221 0.0223 0.0223 0.02239 0.02258 0.02249 0.02268 0.02268 0.02277 0.02287 0.02296 0.02296 0.02306 0.02315 0.02324 0.02324 0.02334 0.02343 0.02353 0.02353 0.02362 0.02372 0.02372 0.02381 0.0239 0.0239 0.024 0.02409 0.02419 0.02419 0.02428 0.02428 0.02447 0.02438 0.02457 0.02456 0.02466 0.02466 0.02475 0.02485 0.02485 0.02494 0.02504 0.02504 0.02513 0.02513 0.02523 0.02532 0.02532 0.02541 0.02541 0.02551 0.0256 0.0256 0.0257 0.0257 0.02579 0.02579 0.02589 0.02589 0.02598 0.02607 0.02607 0.02617 0.02617 0.02617 0.02628 0.02636 0.02636 0.02645 0.02645 0.02655 0.02655 0.02664 0.02664 0.02673 0.02674 0.02673 0.02683 0.02692 0.02692 0.02692 0.02702 0.02702 0.02713 0.02711 0.02722 0.02721 0.0273 0.02722 0.0274 0.0274 0.02741 0.02741 0.02749 0.02759 0.02751 0.02758 0.0277 0.02768 0.02769 0.02779 0.02777 0.02777 0.02788 0.02787 0.02787 0.02798 0.02796 0.02798 0.02807 0.02806 0.02817 0.02807 0.02815 0.02826 0.02815 0.02826 0.02826 0.02836 0.02836 0.02834 0.02835 0.02845 0.02843 0.02845 0.02854 0.02845 0.02854 0.02854 0.02864 0.02864 0.02864 0.02864 0.02862 0.02873 0.02872 0.02873 0.02873 0.02883 0.02873 0.02883 0.02883 0.02892 0.02883 0.02892 0.02892 0.02892 0.02892 0.02892 0.02902 0.02892 0.02902 0.02902 0.02902 0.02911 0.02902 0.02902 0.02911 0.02911 0.02911 0.02911 0.02911 0.02911 0.02911 0.02921 0.02911 0.0292 0.02921 0.02911 0.0292 0.02921 0.0292 0.0292 0.0292 0.0293 0.0292 0.0292 0.0292 0.0293 0.02921 0.0292 0.0293 0.02921 0.0293 0.0292 0.0293 0.0292 0.0293 0.02921 0.0293 0.02921 0.0293 0.0292 0.0293 0.02919 0.0292 0.0293 0.02921 0.0292 0.0292 0.02921 0.02919 0.0292 0.02921 0.0292 0.02921 0.0292 0.02911 0.02921 0.02911 0.0292 0.02911 0.02911 0.02911 0.02911 0.02911 0.02902 0.02911 0.02902 0.02902 0.02911 0.02902 0.02892 5.42e-4 c 2.142945,-1.430268 3.977084,-3.286707 5.381367,-5.448269 z m -15.85958,8.616574 c -0.623662,0 -1.24024,-0.03024 -1.8485,-0.0892 2.244432,-0.414548 4.321327,-0.868878 5.665605,-1.189214 h 0.0074 0.02013 0.02022 0.02022 0.02041 0.02041 0.02051 0.0206 0.0207 0.02079 0.02088 0.02098 0.02098 0.02117 0.02117 0.02126 0.02136 0.02136 0.02155 0.02155 0.02173 0.02173 0.02183 0.02183 0.02202 0.02202 0.02211 0.02221 0.0223 0.0223 0.02239 0.02258 0.02249 0.02268 0.02268 0.02277 0.02287 0.02296 0.02296 0.02306 0.02315 0.02325 0.02324 0.02334 0.02343 0.02353 0.02353 0.02362 0.02371 0.02372 0.02381 0.02391 0.0239 0.024 0.02409 0.02419 0.02419 0.02428 0.02428 0.02447 0.02438 0.02457 0.02457 0.02466 0.02466 0.02475 0.02485 0.02485 0.02494 0.02504 0.02504 0.02513 0.02513 0.02522 0.02532 0.02532 0.02541 0.02541 0.02551 0.0256 0.0256 0.0257 0.0257 0.02579 0.02579 0.02589 0.02589 0.02598 0.02608 0.02607 0.02617 0.02617 0.02617 0.02628 0.02636 0.02636 0.02645 0.02645 0.02655 0.02655 0.02664 0.02664 0.02674 0.02674 0.02674 0.02683 0.02692 0.02694 0.02692 0.02702 0.02702 0.02713 0.02711 0.02721 0.02721 0.0273 0.02721 0.0274 0.02741 0.0274 0.02741 0.02751 0.02758 0.02749 0.02758 0.0022 c -2.122914,0.825504 -4.431981,1.278415 -6.846882,1.278415 z M 34.15762,23.686556 37.436767,22.593444 c 0.236803,-1.194787 0.36097,-2.430209 0.36097,-3.694546 0,-0.287452 -0.0064,-0.573392 -0.01908,-0.857726 L 27.146888,15.448054 13.734812,21.610418 13.433185,21.748955 13.111148,21.668455 0.0066,18.392331 C 0.0022,18.560625 0,18.729487 0,18.898916 c 0,0.809629 0.05091,1.607352 0.149702,2.390143 H 1.1117 1.2003 l 0.08706,0.01645 13.424115,2.539728 5.661544,-2.476889 0.181052,-0.07928 h 0.197683 3.335088 8.152418 0.548448 l 0.272048,0.476157 z M 0.153171,16.480879 c 0.04569,-0.357757 0.101374,-0.712394 0.166788,-1.063537 l 8.453433,1.083759 0.05984,0.0077 h 0.06033 8.15244 0.143254 l 0.136822,-0.04243 9.484224,-2.94341 -0.153555,0.07049 -13.409241,6.16104 z m 1.78291,-5.924239 c -0.473417,0.960821 -0.8676,1.96766 -1.17403,3.012013 l 8.191825,1.050212 h 7.948859 l 10.609652,-3.292661 0.05217,-0.01617 0.05377,-0.01007 5.929059,-1.111728 0.164419,-0.03081 0.165083,0.02749 1.96265,0.32714 C 35.184024,9.1905525 34.378461,7.9566799 33.445138,6.8327243 l -3.45661,-1.0369917 -9.016287,2.1639149 -0.02136,0.00503 -0.02145,0.00409 L 3.512763,11.30383 3.123247,11.37848 2.797175,11.152733 Z m 35.648097,5.491832 c -0.181334,-1.198947 -0.475401,-2.360945 -0.870956,-3.474847 l -2.982057,-0.49704 -5.71087,1.070812 -1.025547,0.318258 0.280459,0.06841 z"
       fill="#8e7561"
       id="path6"
       style="stroke-width:0.999999" />
  </g>
</svg>
